<?xml version="1.0" encoding="utf-8"?>
<!-- Generator: Adobe Illustrator 27.4.1, SVG Export Plug-In . SVG Version: 6.00 Build 0)  -->
<svg version="1.1" id="Layer_2_00000041980558039473971330000008652557452775192756_"
	 xmlns="http://www.w3.org/2000/svg" xmlns:xlink="http://www.w3.org/1999/xlink" x="0px" y="0px" viewBox="0 0 1451.8 488.7"
	 style="enable-background:new 0 0 1451.8 488.7;" xml:space="preserve">
<style type="text/css">
	.st0{fill:#F8CF58;}
	.st1{fill:#BB9D46;}
	.st2{fill:#F8D25B;}
	.st3{fill:#232010;}
	.st4{fill:#1E1C0E;}
	.st5{fill:#F8D45D;}
	.st6{fill:#010101;}
	.st7{fill:#222010;}
	.st8{fill:#BD9F47;}
	.st9{fill:#110F07;}
	.st10{fill:#272413;}
	.st11{fill:#010200;}
	.st12{fill:#BC9F47;}
	.st13{fill:#BC9E46;}
	.st14{fill:#322E1A;}
	.st15{fill:#FFFFFF;}
	.st16{fill:#F8F8F8;}
	.st17{fill:#BC9E47;}
	.st18{fill:#F9D968;}
	.st19{fill:#F9D55F;}
	.st20{fill:#FEFEF8;}
	.st21{fill:#020201;}
	.st22{fill:#FBDD69;}
	.st23{fill:#FADC6A;}
	.st24{fill:#FEFEFC;}
	.st25{fill:#FCEB85;}
	.st26{fill:#F8D35C;}
	.st27{fill:#C9B058;}
	.st28{fill:#FADC68;}
	.st29{fill:#BD9E46;}
	.st30{fill:#C6AC53;}
	.st31{fill:#BD9F46;}
	.st32{fill:#BE9F46;}
	.st33{fill:#D5BE66;}
	.st34{fill:#030301;}
	.st35{fill:#070603;}
	.st36{fill:#010100;}
	.st37{fill:#171309;}
	.st38{fill:#FADE6C;}
	.st39{fill:#FADD6C;}
	.st40{fill:#FADC6B;}
	.st41{fill:#FDED7D;}
	.st42{fill:#F9DE74;}
	.st43{fill:#C3A84E;}
	.st44{fill:#FADE6F;}
	.st45{fill:#FBE26C;}
	.st46{fill:#020101;}
	.st47{fill:#8D7734;}
	.st48{fill:#2B2713;}
	.st49{fill:#100E07;}
	.st50{fill:#1E1C0D;}
	.st51{fill:#FEF469;}
	.st52{fill:#FEEB65;}
	.st53{fill:#FADB5D;}
	.st54{fill:#272312;}
	.st55{fill:#F8DF5F;}
	.st56{fill:#D6B34E;}
	.st57{fill:#CFAD4B;}
	.st58{fill:#FCF680;}
	.st59{fill:#EFCF5B;}
	.st60{fill:#D7BA58;}
	.st61{fill:#9D9B90;}
	.st62{fill:#EA5633;}
	.st63{fill:#ED5835;}
	.st64{fill:#6F6C60;}
	.st65{fill:#CFAE4C;}
	.st66{fill:#FBE05F;}
	.st67{fill:#F8DC5E;}
	.st68{fill:#CBAB4A;}
	.st69{fill:#E75032;}
	.st70{fill:#EA5334;}
	.st71{fill:#4E3118;}
	.st72{fill:#E4C85C;}
	.st73{fill:#FEFEC1;}
	.st74{fill:#FDEF89;}
	.st75{fill:#FDF38F;}
	.st76{fill:#FBE77C;}
	.st77{fill:#474127;}
	.st78{fill:#FDEB65;}
	.st79{fill:#FDFCD4;}
	.st80{fill:#EED05A;}
	.st81{fill:#3F3017;}
	.st82{fill:#EF5534;}
	.st83{fill:#66411F;}
	.st84{fill:#E6D985;}
	.st85{fill:#EF5735;}
	.st86{fill:#FDF8AF;}
	.st87{fill:#F79B6E;}
	.st88{fill:#988037;}
	.st89{fill:#FBF8AF;}
	.st90{fill:#FADA66;}
	.st91{fill:#FCE976;}
	.st92{fill:#D8B54F;}
	.st93{fill:#FCE468;}
	.st94{fill:#FBF8D4;}
	.st95{fill:#3D3117;}
	.st96{fill:#D2B34E;}
	.st97{fill:#E05633;}
	.st98{fill:#F7F2AC;}
	.st99{fill:#F9E57D;}
	.st100{fill:#F6CE57;}
	.st101{fill:#050504;}
	.st102{fill:#040301;}
	.st103{fill:#C4A94F;}
	.st104{fill:#FADD6B;}
	.st105{fill:#FDEE8A;}
	.st106{fill:#FDEF7F;}
	.st107{fill:#FEFEBB;}
	.st108{fill:#FCE46E;}
	.st109{fill:#FEFEF7;}
	.st110{fill:#FDEC7F;}
	.st111{fill:#FDEF82;}
	.st112{fill:#FDEE7F;}
	.st113{fill:#FDF287;}
	.st114{fill:#FEFEBC;}
	.st115{fill:#FEFEC5;}
	.st116{fill:#FEFED6;}
	.st117{fill:#FEFED0;}
	.st118{fill:#FDF384;}
	.st119{fill:#FEFEF9;}
	.st120{fill:#FEFEB7;}
	.st121{fill:#FEFEBA;}
	.st122{fill:#FEFEFA;}
	.st123{fill:#FEFEB2;}
	.st124{fill:#FEFEF2;}
	.st125{fill:#EAE49D;}
	.st126{fill:#FEFE8C;}
	.st127{fill:#FEFE85;}
	.st128{fill:#4B5D2F;}
	.st129{fill:#623E20;}
	.st130{fill:#565639;}
	.st131{fill:#FEFEF5;}
	.st132{fill:#FEFEB6;}
	.st133{fill:#FEFEE0;}
	.st134{fill:#FEFED3;}
	.st135{fill:#FEFECD;}
	.st136{fill:#FEFECB;}
	.st137{fill:#FEFEAD;}
	.st138{fill:#FEFEBF;}
	.st139{fill:#86612D;}
	.st140{fill:#21353B;}
	.st141{fill:#E5C054;}
	.st142{fill:#FEFEA5;}
	.st143{fill:#FEFED4;}
	.st144{fill:#463719;}
	.st145{fill:#FEFBC1;}
	.st146{fill:#2A2410;}
	.st147{fill:#30505C;}
	.st148{fill:#EDE5A8;}
	.st149{fill:#FEFEDF;}
	.st150{fill:#359155;}
	.st151{fill:#2C5C35;}
	.st152{fill:#263920;}
	.st153{fill:#EB5533;}
	.st154{fill:#4D3217;}
	.st155{fill:#146CB0;}
	.st156{fill:#F8E063;}
	.st157{fill:#FEFEE7;}
	.st158{fill:#FEFEB8;}
	.st159{fill:#FEFEEB;}
	.st160{fill:#FEFC91;}
	.st161{fill:#FEFED9;}
	.st162{fill:#1B659E;}
	.st163{fill:#4C4930;}
	.st164{fill:#E45C37;}
	.st165{fill:#FEFC9B;}
	.st166{fill:#FEFEC7;}
	.st167{fill:#FEFEED;}
	.st168{fill:#FEFE9E;}
	.st169{fill:#4FCE8E;}
	.st170{fill:#3CAF6A;}
	.st171{fill:#F98E5D;}
	.st172{fill:#51351A;}
	.st173{fill:#E95B38;}
	.st174{fill:#19AFD7;}
	.st175{fill:#1AA3D0;}
</style>
<path class="st0" d="M307.6,110c-0.1-1.4-1.5-1.8-2.6-2.2c-2.7-0.9-5.3-2.1-8.3-2.6c-3.6-0.5-6.6-2.2-8.7-5.3c-0.7-1-1.4-2-2.7-2.2
	c-0.8,0-1.5,0.3-2.1,0.7c-5.9,4.3-12.9,5-19.8,6c-1.6,0.2-3.4,0.6-4.7-0.9c-0.3-1.6,0.6-2.9,1.2-4.3c3.7-9.7,7.7-19.4,9.4-29.7
	c0.6-3.5,0.8-6.7-2.2-9.2c-2.6-2.1-5.1-4.2-8.3-5.3l0,0c-0.4,0.3-0.7,0.6-0.9,1.1c-0.6,2.6-0.5,5.3-1.3,7.8c-0.2,1.6-1,3.2-0.1,4.8
	c1.6,1.5,3,0,4.5-0.2c1.2-0.2,2.7-1.8,3.7,0.4c-0.8,8.5-3.9,16.3-7,24.1c-0.4,2.3-1.2,4.6-2.2,6.8c-0.1,0.1-0.3,0.3-0.3,0.3
	c0.3,0.5-0.1,0.2-0.3-0.3c-1.3-2.5-3.5-4.6-4.1-7.5c-0.2-1.1-0.5-2.5-2.2-2.4c-0.8,0.5-1.2,1.3-1.7,2.1c-2.4,7.3-4.8,14.5-8.3,21.4
	c-1.5,2.9-3.2,5-6,6.6c-9.5,5.5-19.8,9.7-28.1,17.2c-8.2,7.4-16.9,14.1-25.4,21.2c-11.1,9.3-21,19.6-28.3,32.3
	c-8.5,14.7-13.6,30.7-11.3,47.5c3.6,25.9,15.9,47.3,37.9,62.5c2.2,1.5,3,2.7,0.3,4.3c-2.9,1.8-4.2,4.7-5.8,7.5
	c-4.5,7.9-6.6,16.8-9.2,25.4c-0.6,1.9-2.7,4.2-0.8,5.9c1.7,1.6,3.6-0.9,5.5-1.2c0.3-0.1,0.6,0.1,0.6,0.7c-3.2,4.2-7.6,6.2-12.7,7.4
	c-10.7,7.3-22.7,9.2-35.3,8.5c-10.9,0.6-21.7,2.1-33.8,0.6c7.7-6.5,11.5-15.3,20.1-19.6c5.9-3,8.7-9.5,6.9-14.5
	c-1.6-4.6-4.4-8.8-7.7-12.3c-3.6-3.9-8.1-4.9-11-2c-3.5,3.6-5.3,1.9-7.7-1c-3.1-3.7-6.9-6.6-12.1-6.4c-2.2,0.1-5.3,2.3-6.4,1.5
	c-2.5-2,2.1-3.9,1.2-6.4c-1.9-1.3-3.2,0.1-4.5,1.1c-9,6.3-16.4,14.1-23.3,22.6c-2.9,3.7-5.6,7.6-7.3,12.1c-3.8,10-5.3,20.5-5.7,31
	c-0.6,14.6,4.1,27,17.2,35.3c5.1,3.3,9.9,7.1,14.5,11.2c5.4,5,11.1,9.6,17.4,13.5c5.9,3.7,12.1,5.8,19.2,4.3c2-0.4,4-0.4,5.9-0.1
	c8.4,1.1,16.7-0.2,25-1.4c4.2-0.6,8.3-2.3,12.6-1c1.1,0.5,2.2,0.9,3.4,1.3c4.6,1.6,4.7,1.5,6.2-3.2c0.5-1.6,0.2-3.8,2.4-4.5
	c1.4-0.7,3.4-0.5,3.4-2.8c-0.7-0.7-1.6-1-2.5-1c-3.9,0-6.4-2-7.6-5.5c-1.2-3.4,1.5-5.3,3.2-7.5c4.7-6,12.1-6.8,18.5-9.4
	c4.8-2,9.9-2.8,15.2-1.3c3.1,0.9,4.1,2.7,3.7,5.7c-0.3,2.4-1.5,4.7-1.3,7.1c1.7,1.1,2.9-0.1,4.1-1c1.8-1.2,3.4-2.6,5.2-3.8
	c5.2-3.5,6.6-2.9,7.3,3.2c4.6,3.2,6.8,2.5,8.4-2.5c1.3-3.9,0.3-7.2-2.6-10c-3.1-2.9-3.2-6-0.7-9.4c1.3-1.7,2.5-3.4,4-5
	c2.8-2.9,5.3-6,6.6-9.8c1.3-3.9,4.1-6.4,7.2-8.6c1.7-1.2,3.9-1.7,5.5-3.2c2.5-2.2,5.2-2.9,8.5-1.8c2.9,1,5.8,0.4,8.2-1.5
	c6.5-5.1,13.4-9.5,20.3-14c3.5-2.3,4.3-4.3,2.5-8.1c-2-4.1-3.8-8.3-5.8-12.5c-3.2-6.6-4.8-13.4-1.3-20.7c1.7-3.5,3.7-7.2,2.7-11.4
	c-1.1-5,0.2-9.1,4.4-12.1c2-1.5,1.7-2.9,0.1-4.5c-2.1-2-4.5-3.7-6.7-5.6c-3.1-2.7-8.3-3.5-9.4-7.5c-1.1-3.9,2-7.8,2.9-11.8
	c0.7-3.1,2.2-6.1,0.4-9.3c-1.4-2.7-3.6-4.9-4.5-7.8c-0.4-1.3-1.6-2.2-3.3-1.9c-1.1,0.5-1.5,1.5-1.8,2.5c-2,6.3-4.7,12.2-7.5,18.1
	c-0.7,1.5-1.6,3.2-1.3,4.8c0.7,3.8-1.5,3.4-3.9,3c-1.6-0.3-2.8-1.1-4-2.1c-3.1-2.2-6.8-2.6-10.4-3.3c-6.1-1.3-6.3-1.5-4.2-7.1
	c8.8-24,15.1-48.8,23.5-72.9c0.8-2.4,2.2-3.8,4.5-4.8c5.4-2.2,10.5-5,15.7-7.6c1.5-1,2.8-2.2,4.2-3.3c2.2-2.3,4.5-4.4,7.5-5.7
	c1-0.4,2.1-0.7,2.9,0.3c0.7,0.9,0.1,1.7-0.3,2.5c-1.1,2.1-2.9,4-1.4,6.7c5.1,2.8,7.9,2,10.1-3.2c0.8-2,1.6-4,2.2-6
	c1-3.3,3.2-5.3,6.3-6.7c4.5-2.1,4.5-2.2,2.2-6.6c-2.9-5.7-1.8-11.2,2.9-15.7c2.7-2.7,6.3-3.6,9.5-5.3
	C306.5,112.4,307.8,111.6,307.6,110z M151.1,228.6c-0.4,1.1-1,2-2.3,1.8c-1.4-0.2-1.5-1.3-1.5-2.4c0-1.4,0-2.7,0-4.1c0,0,0,0,0.1,0
	h0c0-1.7-0.2-3.4,0.1-5c0.2-1.4,1.1-2.8,2.6-2.7c1.6,0.1,2.6,1.4,2.7,3.1C153.1,222.6,152.1,225.6,151.1,228.6z M78.4,321.4
	c-2,1.1-3.4,0.3-4.6-1.3c-0.2-0.2-0.4-0.4-0.7-0.6l0,0c0-0.2,0-0.4,0-0.6c0.2-0.4,0.5-0.8,0.6-1.2c0.7-2.4,2.4-3.5,4.7-3.4
	c1.3,0,2.3,1.3,2.3,2.5C80.8,318.6,80.2,320.3,78.4,321.4z M244.7,278.9c0-1.3,0.2-2.4,1.9-2.4c1.6,0.2,1.9,1.4,1.7,2.6
	c-0.2,1.4-0.3,3.5-2.1,3.4C244.3,282.5,244.8,280.4,244.7,278.9z M190.1,201.1c2.1-2.2,4.4-4.2,6.7-6.3l0,0c1.1-0.3,2.3-0.7,3.6-1.1
	c0.4,3.2-1.4,5.7-2.4,8.5c-3,9-6.8,17.7-8.2,27.1c-0.2,1.2-0.6,2.4,0.9,3.2c0,0.2,0,0.3,0,0.5c-0.5,2.9-0.3,7.6-3.1,7.8
	c-3.4,0.3-4.9-4.1-6-7.2C177,220.8,181.2,210.3,190.1,201.1z M200.6,328.8c-6.1,3.7-12.2,7.5-18.3,11.2c-2.4-2.5-0.2-5,0.4-7.1
	c2.2-8,5.4-15.7,8.6-23.4c1.3-3.1,3-5.1,6.4-5.3c3.5,1.2,7.1,1.6,10.7,1.7c1.5,0,3.1-0.5,4.3,1C213.9,316.3,209.7,323.7,200.6,328.8
	z M213.4,160.2c-3.1,2-6.5,3.2-10.5,3.3l0,0c-0.7-0.1-1.7,0-2.5-0.3c-1.1-0.5-2.8-0.5-3-1.8c-0.2-1.3,1.2-1.9,2.2-2.6
	c3.3-2.3,6.8-4.1,10.6-5.1c1.9-0.5,3.9-0.8,4.8,1.3C215.9,156.9,215.3,159,213.4,160.2z"/>
<path class="st1" d="M69.3,298.6c-3.5,1-6.2,3.3-8.7,5.6c-8.4,7.8-17,15.5-22.8,25.6c-4.4,7.6-6.1,16.3-7,24.9
	c-0.7,6.9-2.1,13.9-0.4,20.9c2.4,9.8,6.5,18.1,15.7,23.7c11.8,7.1,20.7,18.1,32.5,25.3c5.7,3.5,11.5,5.7,18.2,3.7
	c1.1-0.3,2.5-0.4,3.6-0.2c11.9,1.7,23.6-0.4,35.2-2.6c1.7-0.3,3.7-0.9,5.2,0.7c-0.9,2.7-2.9,4.7-4.3,7c-1.4,1.3-3,2.6-4.3,4
	c-0.7,0.8-1.7,2.1-2.9,0.3c-0.7-5.1-1-5.2-6-4.7c-9.8,1-19.4,3-29.3,2.3c-9.4-0.9-18.8-1.1-28-3.4c-18-4.4-35.5-9.7-49.4-22.9
	c-3.6-3.5-7.3-6.8-9.1-11.7c-7.2-17.1-5.9-33.8,0.8-50.9c5.8-14.5,14.5-26.9,24.6-38.4c9.9-11.2,21-21,33.8-28.8
	c3.9-2.4,7.8-4.3,12.4-1.7c2.7,6,0.4,13.2-6,18.2C72,296.6,70.6,297.6,69.3,298.6L69.3,298.6z"/>
<path class="st2" d="M272.2,156.1c6.2,2.1,7.4,1.6,9.3-4.5c1.9-5.9,4-11.5,11.1-13c2.2-0.5,0.7-1.9,0.2-2.7
	c-6.5-8.4-0.9-18.3,6.9-21.6c0.1-0.1,0.3-0.1,0.4-0.2c2-1.5,6.4-1.5,6.3-3.6c-0.1-2.6-4.4-3.1-6.7-3.4c-6.4-0.9-11.3-3.7-14.8-9
	c-0.8-1.6,0-2.4,1.4-3c1.7,0.9,4.1-1.1,5.5,1.2c0.1,0.4,0,0.8-0.1,1.2c-1.8,3,0.3,4.4,2.5,5c2.5,0.8,4-0.6,4-3.4
	c1.3-6.1,4.3-11.9,2.7-18.4c-0.8-4.1-2.8-1.7-4.5-0.8c-0.4,0.1-0.8,0-1.2-0.1c-0.2-0.4-0.4-0.8-0.4-1.2c0.6-2.6,3-4,4.3-6.2
	c5.2,0.8,6.9,4.5,7.3,9c0.4,5.2-1.1,10.2-2.8,15.1c-2.3,6.4-2,6.7,4.2,9.1c8.9,3.5,18.2,6.4,25.9,12.5c3,2.4,5.3,5.2,5.9,9.1
	c0.6,1.7,0.5,3.4,0,5.1c-3.1,6.7-8.7,6.8-14.8,6c-1.1-2.8,0.9-3.3,2.9-3.9c6.3-1.9,7.1-6.3,3.1-11.3c-3.7-4.7-9-6.5-13.8-9.1
	c-2.4-1.3-4.9-0.2-7.2,0.2c-6.2,1.1-12,3.1-15.3,9.4c-2.6,5.1-0.1,10.8,5.6,11.8c3.9,0.7,7.5-0.9,11.3-1.5c1.2-0.3,2.3-0.4,3.5-0.4
	c3.2,0.1,5.8,1.4,8.3,3.5c-1.6,1.7-3.4,0.4-4.8,1.3c-8.6,1.3-17.1,2.5-25.7,3.9c-3.1,0.5-5,1.9-6.1,5.4
	c-7.9,25.4-14.4,51.2-21.8,76.7c-2.6,9-5,18.1-8,27c-1.1,3.2-0.7,4.9,2.4,6.6c9.8,5.3,18.5,12.6,24.6,21.7
	c13.4,20,16.6,41.4,2.6,63.4c-8.2,13-20.5,21.2-32.2,30.1c-12.6,9.4-25.6,18.3-39.6,25.5c-1.8,0.9-2.5,2.1-3,4.1
	c-4.5,17.5-9.4,34.9-15.2,52.1c-1,3-2.2,6-4,8.7c-1,1.5-2.1,3.4-4.2,3.1c-3.5-0.5-5.1,1.4-6.9,3.9c-1.6,2.4-3.8,4.6-7.2,2.8
	c-1.5-6.5,0.7-12.6,2.2-18.7c0.5-2,1.4-4,2.3-5.9c0.9-1.6,1.4-3.4,2.2-5.1c1.2-1.6,1.1-4,3.3-4.8c2.1,0.7,2.2,3.1,3.5,4.4
	c2.8,2,4.5,1.6,6.6-1.6c4.7-6.9,6.8-14.6,7.9-22.6c0.3-2.3,0.6-4.9-2.3-6.2c-2.6,0.2-4.3,1.7-6,3.6c-1.1,1.3-2,3.1-4.3,2.5
	c-0.6-4,2.7-6.3,4.2-9.4c2.4-2.3,4.3-5.2,8-5.3c2,0.3,4.4,3.3,6,0.3c1.8-3.2,3.5-7,0-10.4c-2.3-2.2-5-4.3-4.1-8.1
	c0.7-3.1,2.6-5.7,4.7-7.6c3.9-3.8,6.5-8,8.7-13c1.5-3.5,4.6-6.9,8.9-8c1.6-0.4,2.5-1.6,3.7-2.5c2.6-2.1,5.5-3.2,8.8-1.8
	c2.3,0.9,4.7,1,6.6-0.4c7.3-5.7,15-10.8,22.9-15.7c1.9-1.2,2.2-3.1,1.1-5.2c-2.1-4-4-8.2-6.1-12.3c-4.7-8.8-4.9-17.7,0.1-26.3
	c1.4-2.4,1.7-4.8,1.1-7c-1.8-6.6,1.2-10.8,6.3-14.4c-4.9-4.9-10.3-9-16.3-12.3c-2.4-1.3-2.9-2.6-1.9-5.1c1.5-3.8,2.3-7.9,3.7-11.7
	c0.9-2.6,1.1-5,0.1-7.5c-0.8-1-0.4-2.1-0.2-3.1c0.3-1.1,0.8-2,1.5-2.9c1.9-1.9,2.9-4.2,3.1-6.9c5.4-18.7,10.8-37.4,15.7-56.2
	c0.5-1.6,1.4-3,1.3-4.7c-0.8-1.9-2.3-0.8-3.5-0.7c-1.2,0.2-2.3,0.2-3.2-0.6C270,158.2,270,156.6,272.2,156.1L272.2,156.1z"/>
<path class="st1" d="M247.5,91.8c-1.6,9-5.4,17.2-9.7,25.1c-2.5,4.5-8.1,6.4-12.8,8.4c-8.2,3.6-15.5,8.6-22.1,14.4
	c-7.9,6.9-16.3,13.3-24.3,20.1c-17,14.5-30.4,31.5-36.3,53.7c-5.1,19.2-1.1,36.9,7.5,53.9c6.8,13.5,16.2,25,29.5,32.8
	c1.9,1.1,3.1,2.9,0.8,4.2c-8.4,4.5-9.7,13.3-12.8,20.8c-2.4,5.6-3.1,11.9-5.8,17.8c2.4,0.1,3.6-1.5,5.1-2.3c1.1-0.5,2.1-0.6,2.9,0.2
	c1,1.1,0.2,2.2-0.5,2.8c-4,3.3-7.5,7.3-13.4,7.1c-1.1-1.8-0.2-3.6,0.3-5.3c3.6-11.7,8.3-23,13.4-34.1c4.1-8.9,2.7-13-6.5-17.4
	c-9.4-5.8-18.7-11.9-25.8-20.6c-4-8.1-4.6-17-5.8-25.7c-1.2-9.1-0.6-18.3-1.5-27.3c-0.2-1.8,0.2-3.6,0.5-5.4
	c2.1-11,6.2-21.3,11.7-31.1c0.6-0.6,1.2-0.6,1.9,0c1.4,2.6-1.4,4.9-0.6,8.3c3.5-9.3,8.6-16.9,13.9-24.3c-3.2,4.2-6.8,8-9.8,12.4
	c-0.7,1-1.5,2-3,1.7c-0.3-0.3-0.5-0.7-0.6-1.2c1.7-8,7.1-13.7,12-19.7c7.4-8.8,17.1-14.7,26.3-21.3c8.9-6.4,17.6-13.3,27.8-17.7
	c2-0.9,3.8-2.2,5.9-2.4c4.7-0.5,7.1-3.4,9.3-7.2c5.9-10.1,9.4-21.2,13.8-31.9c3.7-8.9,8.3-17.6,13.2-26.1c2.2-3.7,4.3-0.8,6.1,1
	c0.5,2.9,0.2,5.7-0.8,8.5c-1.3,1.9-2.6,3.8-4,5.6c-3.1,3.9-4.9,8.4-4.8,13.5C248.8,86.2,248.7,89.1,247.5,91.8L247.5,91.8z"/>
<path d="M258.3,55.7c-2.1,0.7-2.6-1.8-4.4-2.2c-0.8,1.4-1.7,2.9-2.4,4.3c-6.4,13.4-13.4,26.4-17.9,40.7c-2.2,7-6.6,13-10.2,19.3
	c-0.5,0.8-1.5,1.7-2.5,1.9c-13.4,2.9-24,10.9-34.7,18.7c-9.9,7.3-20.6,13.7-29,23c-5.3,5.9-9.8,12.1-12.6,19.5
	c-0.7,0.9-0.3,2.3-1.6,2.9c-4.7,10.7-10.4,21.3-11.4,33.1c-0.7,7.7,0.1,15.5,0.5,23.3c0.5,10.2,1.9,20.3,4.8,30.2
	c0.3,1,0.1,2.1,0.2,3.2c-10.4-6.8-14.1-17.7-16.3-28.9c-2.9-15,1-29.6,5.5-43.8c7.5-23.7,22.6-42.2,41.8-57.5
	c14.3-11.3,29.2-21.8,46.4-28.4c5.4-2.1,7.8-7.6,9.5-12.3c6.2-17.1,17.9-31.4,24.5-48.2c0.2-0.4,0.5-0.8,0.7-1.2
	c1.3-2.1,2.5-4.4,5.6-3.7c2.9,0.6,3.7,2.9,3.8,5.5C258.4,55.1,258.3,55.4,258.3,55.7L258.3,55.7z"/>
<path d="M79.2,277.4c-8.8-1.4-14.6,4.4-20.7,9c-19.8,14.9-36.3,32.7-46.8,55.5c-5.1,11.1-8.8,22.7-7.9,35.3
	c0.4,5.4,2.1,10.4,3.2,15.6c0.3,1.5,0.7,2.9,0.5,4.5c-8.3-12.9-9.5-26.6-5.1-41.1c7.2-23.8,19-44.8,36.5-62.5
	c7.4-7.5,14.5-15.4,22.4-22.4C68.7,264.6,78.8,269.4,79.2,277.4L79.2,277.4z"/>
<path class="st3" d="M1275.9,44c4.1-3.5,5.3-3.4,9,0.9c0.5,0.4,1,1,0.9,1.5c-2,8.3,4.7,13.2,7.8,20.7c0.4-3.1-0.4-4.8-1.3-6.5
	c-0.8-1.6-1.1-3.2,0.4-4.6c1.1-1,2.5-1.2,3.8-0.6c1.8,0.8,2.3,2.3,2,4.1c-0.2,1.1,0.2,2.1,0.2,3.2c0,0.7,0,1.5,0.1,2.2
	c0.2-0.4-0.1-0.8,0-1.2c-0.4-3,0.5-6.2-1-9c-1-4.7-2-9.5-0.4-14.3c0.3-1,0.1-2.1-0.3-3.1c0-2.4-0.3-4.9-0.1-7.3
	c0.3-4-1.2-6.9-4.3-9.5c-4.2-3.4,0.8-5.8,1.7-8.3c0.9-2.6,2.3,0.5,3.5,1.1c3.4,1.6,4.7,3.8,2.5,7.5c-0.9,1.5-0.6,3.5,0.2,5.3
	c1.8,4.2,3.6,8.3,5.4,12.5c4.7,6,5.7,13.7,9.2,19.7c0-1-0.9-2.1-1.6-3.2c-0.8-1.3-1-2.5-0.1-3.9c0.7-1,1.6-1.5,2.7-1.3
	c1.8,0.3,2.6,1.6,2.7,3.3c0.3,2.4,0.8,4.8,1.8,7c0.8-4.1,0.4-8.5,1.5-12.6c0.3-1.3-0.2-3.2,2-3.6c2.4,2.5,1.1,5.6,1.5,8.4
	c0.1,8.2-1.2,16.3-1.9,24.5c-0.2,2-0.6,4.2-3.6,3.1c-2.4-2-2.8-5-3.9-7.6c-2.2-5.2-4.5-10.3-6.7-15.5c-3.6-8.8-7.8-17.4-9.5-23.9
	c1.8,14.8,2.5,32.5,3.7,50.2c0,1.3-0.6,2.3-1.9,2.7c-2.6-0.8-3.2-3.4-4.6-5.3c-0.6-1.1-1.3-2.1-2-3.2c-1.5-2.5-3.3-4.8-4.7-7.4
	c-2.1-4.1-4.7-7.9-7.1-11.7c-0.5,3.7,0.1,7.5-0.3,11.2c-0.3,1.2-0.5,2.6-2.2,2.4c-2.7-2-1.9-5-2-7.6c-0.1-4.6,0.2-9.1-3.1-13.1
	C1274.5,49.1,1275,46.4,1275.9,44L1275.9,44z"/>
<path class="st4" d="M1238,91.8c-0.6-3.4-1.8-6.5-3.5-9.4c0.2-2-1.5-2-2.7-2.5c-3.4-1.4-3.7-4.3-2.8-7.2c0.6-2,2.3-3.5,4.6-2.9
	c3.2,0.8,4.4,3.2,3.7,6.3c-0.5,2.2,0.3,3.4,1.7,4.8c3.1,3.3,6.1,6.7,9.6,9.9c-0.2-4.5,0.3-9-2.9-12.7c-1.3-1.5-1.8-2.9-0.7-4.4
	c1.1-1.6,2.6-1.2,3.9-0.1c2.3,4,4.5,8.2,8.2,11.6c0.1-5.6-0.2-11,0.8-16.4c0.3-1.5,0.8-3.4-1.4-4.3c-3.1-2.3-2.5-5.4-0.9-8
	c1.9-3,4.6-2,7.1-0.3c1.9,1.1,2.5,2.9,1.8,4.7c-1.1,3.1,0.2,5.3,1.8,7.6c2.9,4.3,6.5,8.1,8.1,13.2c-0.1,1-0.5,1.7-1.4,2.2
	c-2.4,0-2.9-1.9-3.7-3.5c-1.5-3.8-4.4-6.6-6.9-9.6c-1.6,9.9-0.8,19.8-1.1,29.6c-0.1,2.2,0.6,4.7-2.3,5.9c-0.7,0.1-1.4-0.1-2-0.5
	c-5.3-7.1-12.3-12.7-17.7-20c1.8,5.7,4.8,10.8,6.1,16.5c0.1,1.7,1,2.8,2.6,3.5c1.5,0.8,3.3,0.5,4.7,1.6c0.2,0.4,0.4,0.8,0.4,1.2
	c-0.2,0.7-0.6,1.2-1.2,1.5c-2.2,0.2-2.7,1-1.9,3.2c2.5,6.2,4.4,12.5,7,18.6c1,1.1,0.3,3.9,3.2,2.9c0.3-0.2,0.7-0.4,1-0.6
	c2.2-1.1,4.4-2.1,6.6-3.4c0.4-0.2,0.8-0.4,1.1-0.6c7-3.3,14.2-6.2,21.7-8.1c2.6-0.2,4.9-1.2,7.3-1.9c1.7-0.5,3.4-1.2,5.2,0
	c0.5,2.5-1.7,2.4-3.1,3c-3.4,1.3-6.8,2.3-10.2,3.5c-2.6,0.8-5.2,1.6-7.6,2.8c-3.9,1.6-7.9,2.8-11.8,4.6c-3.5,1.4-6.5,3.7-9.8,5.4
	c-2.1,1.1-4,1.4-5-1.5c-3.3-11.7-8.4-22.7-12.6-34c-1.2-3.2-2.7-6.3-4-9.4C1237.7,93.9,1237.2,93.1,1238,91.8L1238,91.8z"/>
<path class="st5" d="M136.3,432.7c0.8-2.7,2.3-4.9,4.6-6.4c0.1,0.1,0.3,0.1,0.4,0.2c4,1.3,6.7,0.1,8-3.9c0.4-1.3,0.9-2.7,2.6-2.7
	c0.5,0.6,0.5,1.2,0.1,1.8c-3.9,16-7,32.3-14,47.4c-0.8,1.8-1.7,3.6-2.8,5.2c-1.9,3.1-4.3,4.5-8,2.2c-2.6-1.7-6.1-1.8-8.4-4.2
	c1.9-5.1,5.3-9.6,6.7-15c1.1-1.6,0.9-4,3.3-4.6c1.4,1.1,1.1,2.7,1.2,4.1c0.1,1.2,0.1,2.4,1.8,2.6c1.3,0.4,2.6,0.7,3.4-0.8
	c4.9-5,5.6-11.8,7.6-18.1c0.4-1.7,1.3-3.4,0.4-5.2c-0.3-0.5-0.8-0.8-1.3-1.1c-2-0.7-3.9,1.5-5.9,0.1
	C135.7,433.8,135.8,433.2,136.3,432.7L136.3,432.7z"/>
<path class="st6" d="M163,294.1c2.6-0.7,7.9,2.7,9.2,5.7c1.6,3.7,0.6,7.1-0.9,10.5c-6,13.2-11.5,26.7-15.5,40.6
	c-10.2,8.4-22.2,9.7-34.7,9.1c-0.7,0-1.1-0.5-1.2-1.1c10.3-1.4,20.2-4.3,29.9-8.1c2-0.8,3.4-1.9,3.8-4c2.2-14.6,9.4-27.5,14.2-41.3
	c1.1-3.1,1.5-5.4-1.7-7.5C164.6,297.3,163.9,295.5,163,294.1L163,294.1z"/>
<path class="st7" d="M1362.1,63.3c2-5.1,4-10.2,2.5-15.9c-0.3-1.1-0.2-2.2,0.9-2.8c0.8-0.5,1.8-0.5,2.6,0c0.9,0.6,1.8,1.6,1.3,2.7
	c-2.7,5.7,1.9,10.3,2,17c3-6.7,3.8-12.7,5.5-18.4c0.4-1.2-0.7-1.9-1.3-2.7c-1.7-2-1.5-4.2-0.7-6.5c3.2-3.2,5.8-1.6,8.3,1
	c0.7,2.6,1,5.1-1.6,7c-2,1.5-0.9,3.6-0.7,5.4c0.7,8.1,1.5,16.2,2.3,24.3c-1,2.2,0.2,4.5-0.2,6.8c-0.2,0.5-0.6,0.7-1.1,0.7
	c-2.6-1.8-0.8-5.3-2.8-7.4c-0.3-0.7-0.4-1.4-0.4-2.1c0-1.5,0.6-2.8,0.6-4.3c-0.1-5.1-1-10.1-1.3-15.2c0-1.2,0.3-2.4,0.4-3.7
	c-0.1,1.7-0.7,3.3-0.4,5.1c-0.8,4.6-2.3,8.9-3.9,13.3c-0.3,0.8-0.8,1.6-1.5,2.2c-1.7,0.6-2-1.2-3-1.7c-3.3-1.7-3.7-0.1-3,2.7
	c0,0.9-0.3,1.7-1.3,2c-1.2-0.1-2-0.9-2.6-1.9c-0.2-0.4-0.4-0.8-0.5-1.2c-0.1-1.9-0.9-3.6-1.3-5.5C1361,63.5,1361.3,62.9,1362.1,63.3
	L1362.1,63.3z"/>
<path class="st2" d="M318.3,138.5c0.9-1.2,2.6-0.5,4.4-1.3c-3.4-0.2-5.2-2.9-8.2-2.2c0.1-2.3,2-2,3.3-2c3.6,0.1,6.7-1.2,9.8-2.8
	c1-0.6,1-1.4,0.7-2.4c-2.8-6.4-7.5-10.5-14.5-10.7c-6.6-0.2-13.2,0.7-16.5,7.9c-0.1,0.4-0.3,0.7-0.5,1.1c-0.5,2,2.5,2.3,1.9,4.3
	c0,0.3-0.1,0.7-0.2,1c2.7,1.1,5.5,0.9,8.2,1.5c1.6,0.3,3.4,0.1,4.1,2.1c-5.2,1.4-10.5,4.2-15.6-0.3c-4-3.4-4.1-6.9-1.7-11.5
	c3.9-7.3,10.2-9,17.6-9.8c7.6-0.9,13.3,1.8,18.1,7.4c0.8,0.9,1.8,1.6,2.8,2.4c2.5,1.9,3.2,5.1,2.3,7.3c-1,2.4-2.4,6-6.4,5.3
	c-2.3-0.4-2.9,1.1-3.3,2.8C322.6,138.5,320.4,138.5,318.3,138.5L318.3,138.5z"/>
<path class="st8" d="M201.6,404.2c-2.4,1.8-4.8,3.7-7.3,5.5c-8.7,9.7-13.9,20.7-12.9,34c-0.4,1.6-0.7,3.3-1.8,4.6
	c-2.6-0.8-3.4-2.9-3.7-5.3c-0.2-1.3,0.2-2.8-0.8-4c0-0.3,0-0.7,0-1c3.2-6.9,5.1-14.2,7.3-21.4c1.1-3.4,0.5-4.1-3-3.6
	c-2,0.3-4,1.5-6.2,0.5c-0.6-1-0.1-1.9,0.7-2.3c3.6-2.1,6.9-4.8,11.2-5.2c3.9-1.4,6.6-4.7,10.1-6.8c2.1-1.2,4.2-2.2,6.3-0.4
	C203.5,400.4,202.4,402.4,201.6,404.2L201.6,404.2z"/>
<path class="st9" d="M94,435.2c6.5-1.4,13.1-1.7,19.7-2.4c3.3-0.3,6.7-0.6,9.9-1.2c6.8-1.2,8,0,6.2,6.6c-0.7,3.8-1.6,7.5-2.9,11.1
	c-1.8,3.1-3,6.5-5.1,9.5c-1,1.4-1.7,3.3-3.9,3.3c-1-2.3-0.7-4.5,0.4-6.8c2.6-5.2,3.7-11,5.5-16.5c0.9-2.6-0.5-2.6-2.1-2.4
	c-6.2,0.8-12.4,0.9-18.7,0.9C99.9,437.4,96.9,436.8,94,435.2L94,435.2z"/>
<path class="st10" d="M1323.6,44c-0.2-1,0.2-2.1-1-2.8c-3.5-1.9-3.4-5-2.6-8.2c4.6-2.9,5.9-2.5,9.2,2.7c-4.3,11.1,5.6,18.1,7.6,27.4
	c0.5-3.4,1.5-6.7-0.4-9.9c-0.8-1.5-0.9-3.1,1.2-3.7c1.7-0.5,3.2,0.9,2.9,2c-1.1,5.1,2.8,8.7,3.3,13.3c2.8,1.7,3.1,4.5,3,7.4
	c0,1-0.2,1.9-0.8,2.7c-3.3,0.9-1.8-2.5-3.1-3.4c-0.7-0.7-1.6-0.7-2.5-0.5c-0.9,0.4-1.7,1.1-2.8,0.5c-3.6-4.2-4.6-9.9-7.8-14.4
	c-0.3-3.1-2.2-5.6-3.2-8.4c-0.9,1.1,0.1,3.4-2.1,3.6C1324,49.7,1325.3,46.7,1323.6,44L1323.6,44z"/>
<path class="st11" d="M173,413.3c2.5-0.6,4.9-1.3,7.4-1.9c1.4-0.3,2.7-0.2,3.7,1c1.1,1.3,0.3,2.4-0.2,3.7c-1.4,4-2.5,8.1-3.8,12.1
	c-1.2,3.6-2.6,7-5.1,9.9c-0.8-4.5,1.3-8.5,2.1-12.7c1.1-5.6,1.3-5.8-4.3-5.5c-6.9,0.5-13.8,2.1-20.8,1.7c0-0.6-0.1-1.2-0.1-1.8
	c1.2-0.6,2.5-1.2,3.7-1.8C161.2,415.1,166.9,413.6,173,413.3L173,413.3z"/>
<path class="st6" d="M299,72.6c1.3,3.6-3.2,3.7-3.9,6.1c-3,6.6-6.9,12.6-11.8,17.8c-3,3.2-6.9,5.1-11.4,5.2
	c-2.5,0.1-4.7,1.3-7.2,1.4c-1.3,0-3.2,1.3-3.6-1.2c2.9-2.8,7-3,10.5-4.7c7.4-3.7,12.2-9.7,16.8-16.2C291.1,77.2,293.2,72.5,299,72.6
	L299,72.6z"/>
<path class="st12" d="M261.2,101.9c11.6,0.5,21.2-2.7,27.3-13.5c1.9-3.4,3.3-7.2,6.6-9.7c0.1,0.4,0.1,0.8,0.2,1.1
	c-0.2,3.8-3.2,6.5-4,10.1c-1.5,1.8-1.9,4.5-4.3,5.5c-1.2,0.6-1.8,1.5-2,2.8c-7,6.4-15.9,6.6-24.5,7.7c-1.1,0.1-3-0.1-1.9-2.3
	C259.5,103,260.3,102.4,261.2,101.9L261.2,101.9z"/>
<path class="st13" d="M175.1,439.1c2,0.3,1.7,1.9,1.7,3.2c0,2.5,1.7,4.1,2.8,6.1c-3.3,8-4.6,16.5-5.7,25c-5.1-2.7-2.5-7.3-2.2-10.9
	C172.3,454.6,173.9,446.9,175.1,439.1z"/>
<path class="st14" d="M1345.6,72.5c0.3-2.8-0.2-5.3-1.8-7.7c3.4-1.1,1.4-4.2,2.1-6.2c1.1-3.6,1.1-7.5,1.6-11.3
	c0.3-2.4,0.6-4.5-2-6.2c-1.8-1.1-1.4-3.5-1.6-5.5c2.1-3.3,4.9-3.3,8-1.7c1.4,2.4,2.6,4.9,0.6,7.6c-1.3,1.7,0.6,2.8,0.6,4.2
	c0.7,1,0.4,1.7-0.7,2c-1.8-0.1-1.7,1.3-1.9,2.5c-0.9,6.1-1.3,12.3-2.6,18.4C1347.5,70.1,1348.1,72.2,1345.6,72.5L1345.6,72.5z"/>
<path class="st12" d="M118.1,462.1c3.8-3.6,5.3-8.6,8.2-12.8c2.1,2.7,0.7,5.5,0,8.2c-1.2,5.6-3.4,10.6-7.4,14.8
	c-3.5-0.4-3-2.9-2.6-5.1C116.7,465.4,117.5,463.8,118.1,462.1L118.1,462.1z"/>
<path class="st2" d="M339.5,132.5c0-1.7,0-3.4,0-5.1C340.6,129.1,340.7,130.8,339.5,132.5z"/>
<path class="st15" d="M1201.3,114.4c-9.7-10.1-20.7-18.3-33.5-24.1c-1.7-0.8-2.4-1.6-2.7-3.6c-1.9-9.5-7.7-16-16.4-20.1
	c-2.5-1.2-4.4-0.5-5.9,1.8c-7,10.7-15.4,20.2-23.7,29.7c-17.2,19.7-34.6,39.2-49.6,60.8c-10.7,15.4-21.1,31.1-32.5,46.1
	c-5,6.6-8.3,14.2-9.5,22.6c-0.5,3.4-2,5.9-5.7,7.5c1.4-21.8-0.8-43.4,1.9-64.8c1.4-11.2,2.8-22.4,9.4-32.2c2.5-3.8,1.2-8.4-2.2-12.1
	c-4.2-4.5-9.6-7.5-14.3-11.5c-6-5.1-12.9-9-21.3-8.9c-1.5,0-3-0.4-4.6-0.5c-1.9-0.2-2.9-0.7-1.7-2.8c3.2-5.8,1.7-10.5-3.2-14.5
	c-1.8-1.4-3.3-3.2-5-4.7c-5.9-5.5-13-4.1-15.5,3.6c-2,6-5.8,11.1-7.3,17.3c-0.3,1.4-1.2,2.6-2.5,3.2c-4.8,2.1-6.9,6.1-8.3,10.8
	c-0.7,2.3-2.1,4.4-3.2,6.6c-3.8,7.4-9.3,13.6-13.3,20.8c-15.1,27.5-32.7,53.5-49.2,80.1c-7.4,11.9-16,23.4-19.1,37.3
	c-2.2,9.7-6.4,17.6-13.4,24.4c-4.3,4.2-7,9.1-7.7,15.2c-0.3,2.8-1.8,5.1-3.4,7.4c-1.5,2.1-3.6,4.1-4.2,6.5
	c-3.3,13.6-11,25.4-15.6,38.4c-4.5,12.8-9.3,25.6-13.5,38.5c-5.3,16.3-2.6,27.3,10.3,38.6c3.5,3,7.7,4.2,12,2.7
	c4.2-1.4,5.6-5.5,6.1-9.5c0.4-2.9,0.2-5.8,0.1-8.7c-0.2-7.7,0.4-8.3,8.2-8.1c7.4,0.1,14.6-0.7,20.8-5.4c6.5-5,6.7-10.2,0.4-15.3
	c-1.3-1.1-3.6-1.9-2.7-4.2c0.9-2.4,3.1-1.3,4.8-1.1c6.6,0.6,10.8-2.4,12.2-9c0.7-3.5,2.2-6.6,3.6-9.9c4.6-10.5,10.7-20.3,16.7-30
	c6.2-10,11.3-20.8,19.4-29.5c9.8-10.6,18.6-21.9,26.3-34.1c1.8-2.8,3.7-5.7,6.5-7.7c0.4,2.3,0.3,4.4,1.1,6.2
	c5.3,12.4,4,25.2,2.3,37.9c-1.2,8.5-0.8,16.7,3.2,24.6c2,4.1,2.2,8.3,1.6,12.9c-1.4,12.6-0.8,25,4.4,36.9c3.4,7.8,4.4,16.1,2.9,24.7
	c-1.3,7.6,0.9,10.2,8.6,8.8c13.8-2.7,25.9-9.4,37.5-16.9c5.4-3.4,9.4-8.2,10.9-14.6c0.6-2.5,0.7-4.5-2.4-5.7
	c-3.1-1.2-6.3-2.2-9.6-2.7c-0.8-0.1-2,0.5-2.2-0.9c-0.2-1,0.4-1.6,1.4-2c5.2-2.3,9.1-6.6,14.3-9.3c7.1-3.7,6.9-9.8,0.5-14.1
	c-0.8-0.5-2.4-0.7-2.1-2c0.3-1.4,1.6-1.9,3.2-2c7.3-0.5,11.1-4.2,13.3-11.5c2.6-8.7,5.9-17.6,10.9-25.1c3.9-6,8.1-11.7,11.3-18.2
	c3.2-6.4,7.1-12.5,11.4-18.2c13.3-17.8,27.8-34.6,42.4-51.3c22.8-26.2,45.5-52.5,70.2-77c5.9-5.8,12.3-11.1,17.3-17.8
	C1204.5,120.6,1204.5,117.7,1201.3,114.4z M881.4,309c-0.2,4.2-1.2,8.4-2.7,12.5c-1,3-3.8,0.8-5.5,0.7c-1.6-0.1-0.8-1.8-0.1-2.8
	c0.1-0.1,0.2-0.3,0.2-0.4C874.6,314.7,875.3,310.1,881.4,309L881.4,309z M969.8,164.8L969.8,164.8c-1.6,2.5,0.9,7.7-4.9,8.8
	c-1.2,0.2-1.9,3.2-3.6,0.8c-1.2-1.8-1.5-4.3-0.2-5.5c2-1.9,2.5-4.4,4.1-6.4c0.9-1.1,1.4-3.2,3.3-2.5
	C970.3,160.7,969.7,162.6,969.8,164.8z M988,271.1c-2.1,1.1-2.7,4.6-5.8,2.9c-0.7-0.4-2.2-1.7-1-2.9c0.9-0.9,2-3.2,3-2
	C985.3,270.4,986.9,269.3,988,271.1L988,271.1z M1036.8,282c-0.2,0.6-7.8,1.9-8.2,1.4c-1.5-2.1-1.5-3.8,0.6-5.8
	c2.4-2.3,3.9-5.6,7.3-7.1c0.7-0.3,1.1-1.8,2.3-1.3c1.1,0.4,0.6,1.6,0.8,3c0,0,0,0,0,0v0c0,0,0,0,0,0
	C1038.8,275.1,1037.9,278.6,1036.8,282z M1160,134.5c-0.5,3.1-2.9,4.3-5.4,2.5c-2.6-1.8-3.3-5.9-0.9-7.9c1.5-1.2,1.5-2.6,2-4.4
	c0,0,0,0,0,0l0,0c0,0,0,0,0,0C1158,127.9,1160.7,130.3,1160,134.5z"/>
<path class="st15" d="M666.5,155.4c-1.5-6-3.4-12.1-9.6-14.8c-3-1.3-4.8-3.3-5.6-6.1c-1.4-4.6-4-8.2-7.7-11.1
	c-2.2-1.7-3.1-3.8-2.8-6.8c0.3-2.7,0.5-5.5,0.9-8.2c0.7-4.7-3.3-13.6-6.9-15.2c-5.1-2.3-8.5,1.5-11.7,4.3
	c-8.8,7.5-18.7,13.4-29.3,17.8c-27.1,11.3-52.6,26.1-79.2,38.5c-8.8,4.1-17.6,8.5-23.2,17.3c-1.9,2.9-5.2,4.4-9.2,5.5
	c2.9-6.9,6.7-12.5,10.8-17.9c4-5.4,7.2-11.2,9.4-17.7c3.8-10.8,7.3-21.7,13.2-31.7c2.6-4.5,5.4-8.9,7.6-13.6c4.2-9,1-15.1-8.7-17.3
	c-3.3-0.7-6.7-0.8-10,0.1c-11.1,3.3-22.5,4.5-34,3.9c-6.5-0.3-9.1,3.9-11.8,8.4c-2.6,4.3,1,6.3,3.1,9c1,1.3,3.5,2.6,2.3,4.5
	c-1.4,2.3-4.2,2.9-6.9,2.6c-1-0.1-2-0.8-3-1.2c-4.5-2-7.4-1.4-9.8,2.8c-6,10.6-12.5,20.9-16.5,32.6c-3.6,10.7-8.5,20.9-14.5,30.4
	c-13.5,21.7-27.5,43-41.6,64.3c-13.7,20.8-26.9,41.9-39.8,63.2c-10,16.6-19,33.9-29.4,50.3c-7.5,11.8-12.9,24.6-18.9,37.1
	c-3.4,7.2-0.1,11.5,7.9,11.5c1.2,0,2.4-0.4,3.5,0.6c4.2,3.7,10,4.5,14.5,7.8c1.2,0.9,2.9,1.4,4.4,0.9c5.3-1.9,10.5,0.4,15.8,0.2
	c2.6-0.1,3.8,0.8,4.4,3.8c2.1,10.2,5.8,13.3,15.9,14.8c4,0.6,6.6-0.8,7.9-4.5c1-2.7,1.8-5.5,2.7-8.3c3.1-9.4,5.8-19,11.1-27.6
	c6.5-10.6,11.6-21.8,16.2-33.3c5.1-12.7,11-24.9,19.2-35.9c0.8-1,1-2.6,3-2.2c11.1,2.2,22.7,2.5,33.5,6.3
	c19.9,6.9,38.8,16.1,57.2,26.3c21.1,11.7,42.6,22.7,63.8,34.3c4.3,2.3,8.6,4,13.3,4.5c2.7,0.3,5.4,0.1,7-2.4
	c5.5-8.4,7.9-17.9,6.5-27.5c-0.8-5.6-0.6-10.8-0.3-16.2c0.2-2.6,1.2-4.9,3-7c5.4-6.1,7.4-13.6,7.8-21.5c0.3-6.4-2.8-9.1-9.1-8
	c-7.7,1.4-15.2,1.4-22.5-1.9c-3.3-1.5-6.7-3-10-4.7c-20-10.8-41-19.2-62.7-25.8c-6.6-2-13.2-3.8-20.3-3.3c-2.8,0.2-5.4-1-7.8-2.4
	c-3.3-1.9-6.4-4.1-9.8-6.2c2.7-0.9,4.7-2.7,7-4.2c6.9-4.6,13.7-9.6,21.1-13.3c11.9-5.9,24.2-10.8,36.3-16.2
	c21.2-9.6,43.4-16.6,64.8-25.6c15.5-6.5,30.2-14.8,46.3-19.7c7.5-2.2,14.9-4.6,22.2-7.4C668.7,168,669.3,166.7,666.5,155.4z
	 M338.1,368.3c-2.6,2.1-5.2,4.1-7.9,6.1c-0.8,0.6-1.7,0.8-2.4,0.1c-0.7-0.7-0.4-1.7,0-2.5c1.9-3.4,3.7-6.8,5.7-10.2
	c1-1.6,1.8-4.1,4.2-3.4c2.7,0.7,2.2,3.6,2.6,5.7l0,0C340.7,366.1,339.3,367.2,338.1,368.3z M406.4,259.2c0,0.3,0.2,1.6-0.5,2.9
	c-0.9,1.7-1.2,4.1-3.6,4.2c-2.8,0.1-3.2-2.7-3.7-4.5c-0.8-3,0.9-5.8,2.2-8.4c0.6-1.2,2.2-1.1,3.3-0.5
	C406.2,253.9,406.9,255.9,406.4,259.2L406.4,259.2z M534.1,320.5C534.1,320.5,534.1,320.5,534.1,320.5L534.1,320.5
	C534.1,320.5,534.1,320.5,534.1,320.5c2.7-0.1,4.2,1.3,4.2,3.4c0,2.4-1.4,4.7-4,4.5c-2.5-0.2-3.5-2.6-3.7-4.9
	C530.2,320.6,532.7,321,534.1,320.5z M559.7,175.8c-0.4,0.8-0.9,3.1-2.3,4.5c-3.4,3.4-7.2,6.5-11,9.5c-0.7,0.6-2,1.6-3.3,0.5
	c-1.7-1.4,0-2.5,0.4-3.6c0.4-1.1,1.1-2.2,1.8-3.1c3-3.7,7.5-6.1,10-10.4c0.5-0.9,1.9-1.7,3.2-1.2
	C559.7,172.3,560.2,173.3,559.7,175.8z M597.9,158.5c-0.3,1.7-0.9,3.3-3,3.3c-1.5,0-2.2-0.8-2-2.3c0.2-1.8,1.1-3.1,2.9-3.4
	C597.6,155.9,597.9,157.2,597.9,158.5L597.9,158.5z"/>
<path class="st16" d="M834.5,216.7c-1.1-0.1-1.7-2.2-1.4-3.4c0.4-1.5,1.9-2.9,3.8-3c1.6-0.1,2.7,1,2.2,2.6
	C838.6,214.5,838.4,216.9,834.5,216.7L834.5,216.7z"/>
<path class="st15" d="M865,129.6c-1.7-12.1-7.1-23-11.9-34c-7.6-17.6-21.6-28.5-38.4-36.2c-5-2.3-10.4-0.7-13.9,3.2
	c-4.5,4.9-7,11-7.6,17.8c-0.2,3,0.3,5.9,2.4,8.1c1.4,1.5,0.9,2.6,0.2,4c-3,5.2-6.7,10.1-5.3,16.8c-10.1-2.8-15.8-1.1-21.3,6
	c-6,7.8-6,10.6,0,20.8l0,0c-1.8,0.7-3.1-0.1-4.2-0.7c-5.7-3.1-11.5-3.1-17.8-2.1c-9,1.5-18.1,2.5-27.2,3.4c-3.3,0.3-6.3,1.2-9,3
	c-4.3,2.9-8.5,5.9-12.4,9.5c-7.1,6.6-7.6,9.3-2.9,17.9c1.1,2,1.9,4.3-0.1,5.8c-5.4,4.3-10.1,10.2-17.4,11.2
	c-6.4,0.8-10.2,4.3-13.9,9.3c-14.2,19.2-22.9,41.4-33.7,62.4c-6.7,13.2-12.5,26.8-15.3,41.5c-1.7,9.2-3.5,18.3-5.7,27.3
	c-6,24.6-9.1,49.2-1.1,74c1,3,2.4,5.4,4.3,7.9c5.4,6.9,13,8.6,20.9,11c28.9,9.2,56.1,3.9,81.6-10.2c27.7-15.5,49.8-37.9,69.5-62.5
	c15.1-18.8,27.5-39.3,39.6-60.1c17.2-29.7,31.6-60.7,39.1-94.4C868.1,170.3,867.8,149.9,865,129.6z M643.6,385.9
	c-0.2,1.5-0.7,2.7-2.4,2.7c-1.8,0-2.3-1.2-2.2-2.8c0.1-1.9,1.6-2.3,2.8-2.4C643.1,383.2,643.7,384.4,643.6,385.9L643.6,385.9z
	 M661.1,274.7c-2.3,5.6-5.8,10.4-9.8,14.9c-0.7,0.7-1.5,1.1-2.4,0.7c-1.1-0.5-0.7-1.5-0.8-3.1h0c0.5-2.4,1.2-5.5,1.8-8.6
	c0.2-1,0.8-2,1.6-2c3.2,0.1,4.4-2.3,6.1-4.2c0.8-0.8,1.7-1.9,3.1-0.9C662,272.4,661.6,273.5,661.1,274.7z M695.2,375
	c-0.1,1.1-0.5,1.9-1.6,2.1c-1.3-0.4-2.2-0.9-2.3-2.4c0-1.4,0.6-1.8,1.9-1.8C694.7,372.9,695.3,373.5,695.2,375z M773.9,299
	c-0.3,1.8-1.4,3.6-3.5,3.7c-1.7,0.1-2.1-1.4-2.1-2.9c0-2,0.9-3.5,3-4.1h0C772.8,296.4,774.2,297.2,773.9,299z M778.2,203.5
	c-14.8,39.1-38,73.5-62.5,106.9c-11.1,15.1-24.5,28.5-41.1,38.1c-1.1,0.6-2.1,1.3-3.1,1.9c-0.2,0.1-0.6,0.1-1,0.1
	c-1.1-6.4,0.6-12.5,2.6-18.3c4.2-12.4,6.5-25.1,8.7-37.9c3.2-18.9,10.9-35.8,22.8-50.8c12.8-16.2,23.9-33.5,35.5-50.6
	c5.1-7.6,10.9-14.8,16.4-22c1.6-2,3.3-4.1,6-4.7c10-2.3,11.5-11.2,14.4-18.8c1.1-2.9-1-5.5-3.1-7.7c-1.2-0.2-2.3-0.5-2.4-2.8
	c1.5,1.1,2.6,1.9,3.8,2.6c0,0,0,0,0,0l0,0c8.6,5.7,11.5,14.3,11.9,24C787.5,177.5,783.1,190.6,778.2,203.5z M822,189.8
	C822,189.8,822,189.8,822,189.8c0.1,1.6-0.8,2.4-1.7,2.9c-2.4,1.4-4.8,2.8-7.4,3.8c-2.5,1-3.4-0.2-2.9-2.7c1.2-5.7,6.5-8.4,10.6-5.3
	C821.2,188.9,821.7,189.4,822,189.8C822,189.8,822,189.8,822,189.8L822,189.8z"/>
<path class="st1" d="M197.7,304.2c0.2-0.9,0.5-2,1.6-1.9c13.3,1.7,26.1-3.9,39.4-3c4.1,0.3,7.8,1.4,11.1,3.9
	c6.1,4.7,5.6,12.5-1.2,17.2c-11.3,7.8-23.8,13-37.1,16.6c-8.8,2.4-17.8,4-27,4.1c-1.1,0-1.7-0.2-2.2-1.1c5.1-5.3,11.5-8.8,18-12.1
	c3.9-0.6,7.1-2.5,10-5.2c2.7-1.5,5.4-2.9,8.4-3.6c5.9-0.1,9.9-4.4,14.7-6.9c1.7-0.9,1-2.3-0.7-3c-1.8-0.7-3.6,0.2-5.4,0.4
	c-3.9,0.2-7.7-0.8-11.6-1.1c-1.2-0.3-2.4-0.7-3.6-1c-3.5-0.8-7.3-0.3-10.8-1.3C200,306,198.2,306.1,197.7,304.2L197.7,304.2z"/>
<path class="st17" d="M229.9,252.4c1.9-6.3,3.7-12.6,5.6-19c3.1-11.2,7.2-22,10.5-33.1c4.8-16.2,10.8-32.1,17.1-47.8
	c1.8-4.1,5.5-5.8,9.3-7.2c1.2-0.4,2.4,0.3,3.2,1.3c0.8,1,0.1,2-0.5,2.9c-1.2,2.1-3,3.9-2.9,6.5c-0.6,1.2-1.1,2.5-1.7,3.7
	c0.3,0.5,0.2,0.9-0.1,1.4c-6.6,4.7-7.4,12.3-9.6,19.2c-2,6.2-3.7,12.6-7,18.3c-3.2,5.5-4.3,11.4-2.8,17.7c-0.3,3.2,0.2,6.7-1.8,9.6
	c-3.2,7.5-6.4,15.1-9.4,22.7c-0.6,1.6-1.8,3.3,0.4,4.8c0.7,0.5,0.7,1.3-0.2,1.8C237.8,256.4,231.8,254.8,229.9,252.4L229.9,252.4z"
	/>
<path class="st13" d="M190.6,246.1c-2.6-1.5-5.7-1.4-8.1-3.7c-4-3.8-5.9-7.8-6-13.6c-0.1-6.2-1.4-12.4,2.3-18.1
	c4.7-7.4,9.7-14.3,18.1-18c0.6,0.9,0.2,1.9,0.3,2.8c-4.2,4.4-8.6,8.6-11.9,13.7c-5,7.8-5.5,15.9-2.2,24.4c0.5,1.4,1.3,2.8,2.3,3.9
	c1.5,1.7,2.7,2,3.4-0.6c0.4-1.6,0.7-3.3,1.2-4.9c4.3-13,9.5-25.6,13.7-38.6c0.6-1.8,0.6-3.6,0.7-5.4c2.5-3.1,4.9-6.2,7.6-9.2
	c2.4-2.6,4.1-2.2,5.4,1c0.4,3.6-2.2,5.4-4.3,7.6c-5.7,5.9-7.3,13.5-8.3,21.2c-0.2,1.8,0.2,3.7-1.3,5.2c-1.5,5.8-2.8,11.7-4.7,17.5
	c-1.7,5.1,0,9.8,0.9,14.7C196,249.1,193.7,249.1,190.6,246.1L190.6,246.1z"/>
<path class="st5" d="M173,413.3c-5.6,2.1-11.4,3.9-17.3,4.8c-3-0.2-6.2,0.6-8.7-1.9c-4-4.1-3.8-7.3-0.2-11.9
	c5.4-6.9,13.6-8.2,21.1-11c5-1.9,9.9-2.3,15.2-1c3.6,0.9,4.8,3.4,4.4,6.2c-0.3,2.6-0.6,5.4-2.5,7.7
	C181.4,409.1,176.3,409.7,173,413.3L173,413.3z"/>
<path class="st18" d="M212.7,186.4c2.1-1.7,3.3-4.2,4.6-6.5c1.8-2.2,3.1-4.7,5.4-6.6c2.6-2.1,5.1-2,7.9-1.6c1.5,0.2,2.4,0.7,1.9,2.3
	c-2.4,7.5-4.8,15-7.1,22.5c-1.5-1.8-0.6-3.7-0.5-5.6c0.4-4.5,2.8-8.6,2.4-13.2c-0.9-0.2-1.5,0.4-1.9,1c-3.8,6.3-8.8,11.8-12.2,18.3
	c-3.4,6.6-4,13.7-1.6,20.9c0.7,2.2,1.3,4.4,1.2,6.7c0,0.6-0.3,0.1,0,0.4c0.7,0.6,0.2-0.5,0.5-0.6c1-3.6,2.4-7.1,4-10.5
	c0.7-1.5,1.1-3.5,3.4-3.7c-0.8,6.2-2.4,12.2-5.1,17.8c-1.8,3.6-3.5,3.4-6.1,0.6c-3.7-4.2-3.2-9.8-5.4-14.5
	c-0.7-6.2,2.3-11.6,3.9-17.2C209.2,193.2,209.5,189.2,212.7,186.4L212.7,186.4z"/>
<path class="st13" d="M61.4,380.4c-3.1-4.4-4.6-8.7-6.3-13.8c-1.1,4.5,0.1,8.4-1.3,11.9c-0.4,0.9,0,2.3-1.4,2.6
	c-1.4,0.2-2.3-0.8-2.9-1.9c-2.8-4.2-2.8-9.1-2.1-13.7c0.6-3.9,1.4-7.8,3.3-11.3c1-1.8,2.1-3.5,4.5-3.1c2.5,0.4,2,2.7,2.4,4.6
	c1.4-2,2.7-4,4.1-5.8c0.5-0.7,1.2-1.6,2.2-1.2c1.3,0.6,0.9,1.8,0.5,2.8c-1,2.7-2.4,5.3-3.2,8.1c-1.3,4.6-1.6,9.3,0.1,13.9
	C62,375.4,62.2,377.5,61.4,380.4L61.4,380.4z"/>
<path class="st6" d="M263.1,152.5c1.1,2.9-0.5,5.4-1.5,7.8c-7.2,16.9-12.6,34.5-17.9,52c-2.2,7.2-4.3,14.5-8.2,21
	c-1.4-0.7-0.7-1.7-0.5-2.7c5.9-25.3,13.5-50.1,24-73.9c0.2-0.5,0.2-1.2,0.2-1.7C260.3,153.8,261,152,263.1,152.5L263.1,152.5z"/>
<path class="st19" d="M190.6,246.1c3,1.7,6.1,0.7,9.1,0c2-0.2,4.2-0.9,6-0.4c1.7,0.4,3.6,1.6,3.2,4.1c-1.2,1.2-2.8,1.2-4.2,0.8
	c-4.4-1-8.7-0.3-12.8,1.5c-0.3,0.2-0.7,0.5-1,0.8c-0.6,1.3,0.2,2.1,1,2.8c3.6,3.3,6.7,7,9.7,10.9c3.6,4.5,18.6,6.6,22.6,0.5
	c2.4-3.7,6.2-2.4,9.5-2.6c0.1,0.7,3.6,0.2,0.7,2.1c-3.2,2-6.2,4.4-9.3,6.5c-0.5,0.3-1,0.7-1.5,1c-7.3,3.7-21.9,0.2-26.9-6.2
	c-2.1-2.8-4.8-5.1-7.2-7.6C184,254.7,184.2,251.2,190.6,246.1L190.6,246.1z"/>
<path class="st20" d="M228.2,175.4c1.7,1.4,0.8,3,0.5,4.6c-1.1,5.5-3.1,10.8-3.3,16.5c-1.5,4.6-3.7,8.9-4.6,13.7
	c-3,4.5-4.6,9.7-6.4,14.7c-0.6,1.1-1.6,2-2,0.2c-0.3-1.5,0.3-3.3,0.3-5c0-1.7,1.7-4.1-1.8-4.4c-0.5-0.1-0.6-1-0.5-1.6
	c0.6-7.9,1.1-15.8,6.2-22.5c2.9,1.1,4.3-0.1,5-2.9c0.4-1.5,0.9-2.9,1.4-4.3C224.2,181.1,225.1,177.6,228.2,175.4L228.2,175.4z"/>
<path class="st19" d="M105.1,413.4c-1,8-10.2,14.8-17.5,12.2c-2.7-1-6-2.5-7.9-5.2c-1.3-1.8-3.4-4.1-2.4-5.9
	c1.9-3.2,4.7-6.5,8.9-6.5c4.3,0.1,8.6-0.7,12.9,1.1c2,0.9,3.4,2.3,5.2,3.3C104.6,412.7,104.9,413,105.1,413.4L105.1,413.4z"/>
<path class="st13" d="M41.9,385.9c-4.4-2.6-6.1-6.7-7-10.9c-2.2-10.1-0.7-20.3,0-30.4c0.1-1.2,0.7-2.4,1.2-3.4
	c0.8-1.7,1.8-3.6,4.1-2.7c2.5,0.9,0.8,2.9,0.5,4.3c-2.8,12.8-4.3,25.5,0.4,38.2c0.5,1.3,0.9,2.6,1.2,3.9
	C42.3,384.9,42.2,385,41.9,385.9L41.9,385.9z"/>
<path class="st13" d="M105.1,413.4c-0.3-0.3-0.5-0.6-0.8-0.9c9.3,0.8,18.2-1.5,27.1-3.2c3-0.6,6.1,0,9-1.3c0.6-0.3,1.6-0.3,1.9,0.7
	c0.3,0.9-0.5,1.5-1.1,1.7c-9.6,3.7-18.8,8.9-29.6,8.5c-1.5-0.1-2.6-0.4-3.3-1.9C107.6,415.5,106.7,414.1,105.1,413.4L105.1,413.4z"
	/>
<path class="st13" d="M73.1,319.5c-2.4,8.5-7.2,15.8-11.2,23.5c-0.6,1.2-0.9,3.6-3.5,2.5c-2.3-1-3.3-2.7-2.8-5.1
	c0.8-4,2.7-7.4,5.3-10.5c3.3-3.8,6.1-8.1,10.4-10.9c0.7-0.4,1.2-1,1.9,0C73.1,319.1,73.1,319.3,73.1,319.5L73.1,319.5z"/>
<path class="st21" d="M196.8,194.8c-1.2-0.7-0.1-1.3,0-2c2.4-1.7,4.3-4.2,7.5-4.7c1.5,0.7,1.8,1.5,1.3,3.3
	c-4.3,13.9-9.7,27.4-14.8,41c-3.3-0.4-1.9-2.9-1.7-4.5c1.5-9.4,5.2-18.2,8.3-27.1C198.1,198.8,199.7,196.5,196.8,194.8L196.8,194.8z
	"/>
<path class="st22" d="M233.7,264.5c-1.2,1.4-2.8,0.9-4.3,0.9c-1.5,0-2.5,0.5-3.6,1.5c-6,5.9-17.7,7.4-23.8,1.6
	c-4.5-4.3-8.4-9.4-12.7-14.1c-0.8-0.9-0.8-2,0.3-2.7c1.1,1.1,2.5,2,4,2.5c0.4,0.1,0.8,0.3,1.2,0.4c4,1.9,7.8,3.9,7.4,9.3
	c0.3,0.3,0.6,0.6,0.9,0.8c3.9,2.2,8,3.5,12.6,3.3c2.3-0.1,5.6,1.4,4.8-3.5c-0.2-1.4,1.8-1.8,3.2-1.9c2.3-0.2,4.5,0.6,6.7,1
	c0.2,0,0.4,0,0.6,0C231.9,263.9,232.8,264.2,233.7,264.5L233.7,264.5z"/>
<path class="st23" d="M190.5,251.6c5.8-4.1,12.1-2.4,18.4-1.8c5,2.2,10.8,2,15.3,6c2.6,2.4,4.9,4.9,6.8,7.7l0,0
	c-3,0.7-5.3-1.4-7.9-2.2c-8.5-5.9-18.3-7.5-28.3-8.5C193.2,252.7,191.7,252.9,190.5,251.6L190.5,251.6z"/>
<path class="st24" d="M265.8,68.1c-0.7,9-3.8,17.2-7.4,25.4c-1.5,2.4-2,1.1-2.2-0.7c-0.2-1.5,1.3-3.7-2-3.7c-0.8,0-0.6-1.6-0.6-2.5
	c0.3-4.3,1.1-8.5,2.7-12.5C257.4,71.6,263.2,68,265.8,68.1L265.8,68.1z"/>
<path class="st25" d="M265.8,68.1c-1.3-0.3-2,0.4-2.5,1.4c-0.4,0.7-0.6,1.8-1.1,1.9c-9.6,2.6-4.6,11.5-8.2,16.8
	c2.2,0.7,2-1.9,4.1-1.1c-0.3,1.9-0.8,3.9-1,5.9c-0.2,1.7,0.8,0.5,1.4,0.4c-0.1,2.8-1.5,5.1-2.6,7.5c-0.5,0.1-1.1,0.1-1.1-0.4
	c0.3-7.3-5-13.7-3.7-21.2c1.3-3.9,1.8-8.1,5.7-10.6c2.3-0.8,4.5-1.6,6.8-2.4C264.9,65.9,265.8,66.3,265.8,68.1L265.8,68.1z"/>
<path class="st13" d="M65.8,405.1c-6.6-3-13.1-5.6-17.1-11.9c-1.1-1.8-2.7-3.9-0.6-5.7c2.5-2.1,3.9,0.6,5.1,2.1
	c3.5,4.6,6.7,9.4,11.7,12.6C65.6,402.7,66.3,403.4,65.8,405.1z"/>
<path class="st26" d="M249.3,225.9c0-3.4,0.1-6.8,1-10.1c0.1-5.2,0.1-5.4,3.1-6.2c2.6,7.3,4.5,14.8,3.2,22.7
	c-0.3,0.9-0.6,1.8-0.9,2.8C252.4,232.9,252.5,228.3,249.3,225.9L249.3,225.9z"/>
<path class="st27" d="M256.7,68.8c-1.5,3.4-3.6,6.5-4.6,10.1c-1.2,3.7-0.2,8.1-3.6,11c-0.3,0.6-0.7,1.2-1,1.8
	c0-4.3-0.5-8.6,0.3-12.7c1.2-6.1,4.5-11.2,9.8-14.8C257.2,65.7,256.9,67.2,256.7,68.8L256.7,68.8z"/>
<path class="st28" d="M248.5,89.9c1.2-3.7,2.4-7.4,3.6-11c0.1,4.9-0.4,9.9,3.4,14c0.7,0.7,0.2,2.6,0,3.9c-0.3,1.5-1.2,2.9,0.3,4.2
	c-0.1,0.8-0.1,1.6-0.9,2c-0.5,0.2-0.8-0.1-0.9-0.6C253.3,97.7,249.1,94.6,248.5,89.9L248.5,89.9z"/>
<path class="st29" d="M56.7,320.2c-1.9,4.6-4.4,8.8-6.1,13.3c-0.5,1.3-1.4,2.7-3,2.2c-1.8-0.6-1.8-2.5-1.3-3.9
	C48.3,326.7,51.3,322.3,56.7,320.2L56.7,320.2z"/>
<path class="st30" d="M212.7,186.4c-2.8,9.2-5.6,18.3-8.4,27.5c-0.3,0-0.6,0-0.8,0c-0.4-8.3,1.6-15.9,5.4-23.3
	C209.7,188.9,210.9,187.4,212.7,186.4L212.7,186.4z"/>
<path class="st31" d="M125.4,397.6c-4.8,2.5-9.8,3.2-15.1,3c-1.3,0-2.5-0.3-2.8-1.8c-0.3-2,1.5-2.3,2.6-2.5
	C115.4,395.3,120.4,396.3,125.4,397.6L125.4,397.6z"/>
<path class="st29" d="M120.7,426.1c-3.1,0.3-4.7-0.4-5.1-2.2c-0.4-2,1.6-2.6,2.9-2.8c3.2-0.3,6.4-0.2,9.5-0.3c0.6,0,1.4,0.2,1.3,0.9
	c0,0.5-0.4,1.2-0.9,1.4C125.6,424.3,122.7,425.4,120.7,426.1L120.7,426.1z"/>
<path class="st32" d="M73.8,329.9c-0.4,4.1-2.3,7.5-4.5,10.7c-0.6,0.8-1.3,1.3-2.3,0.9c-1.1-0.5-1.8-1.5-1.3-2.6
	C67.6,335.2,69.8,331.7,73.8,329.9z"/>
<path class="st31" d="M69.2,393c-2.1-1.9-4.7-3.4-5.9-6.1c-0.6-1.2-0.7-2.4,0.5-3.2c1.7-1,2.7,0.4,3.1,1.6
	C67.9,387.8,68.5,390.4,69.2,393L69.2,393z"/>
<path class="st21" d="M12.2,382.1c-4.7-4.1-4.9-8.7-5.2-12.9c-0.3-4.4,0.3-8.9,1.6-13.1c0.6-1.9,1.4-4.2,4-3.4
	c2.5,0.8,1.6,3.1,1.2,4.7c-1.5,5.5-2.3,11.1-2.4,16.7C11.4,376.4,11.9,378.7,12.2,382.1L12.2,382.1z"/>
<path class="st33" d="M126.2,457.5c0-2.7,0-5.5,0-8.2c1.2-3.7,0.8-7.9,3.7-11.1c2.2-1.8,3.3-4.8,6.4-5.6c0,0.6,0,1.2,0,1.9
	c0.3,3.3-2.7,5.4-3,8.5c-1.2,3.4-1.3,7.3-4.4,9.8C127.5,454.1,127.9,456.4,126.2,457.5L126.2,457.5z"/>
<path class="st34" d="M39.2,311.5c-4,4.8-8.3,9.2-10.6,15.2c-0.3,0.7-0.7,1.9-1.9,1.4c-1-0.5-1.6-1.4-1.2-2.6
	C28,318.8,32.9,314.5,39.2,311.5L39.2,311.5z"/>
<path class="st35" d="M61,288.6c1.7-2.7,3.3-4.7,5.4-6.2c0.8-0.5,1.8-0.7,2.4,0.2c0.6,0.8,0.6,1.8-0.3,2.4
	C66.4,286.4,64.3,288.1,61,288.6L61,288.6z"/>
<path class="st36" d="M18.2,348.8c-1.7-2.2-1.2-4.5-1.2-6.7c0-1.1,0.6-2.2,1.9-2c1.2,0.2,1,1.4,0.8,2.2
	C19.2,344.4,18.7,346.6,18.2,348.8z"/>
<path class="st37" d="M52,300.7c-0.5-3.8,2.4-4.1,4.2-5.9C56.4,298.1,54.3,299.1,52,300.7z"/>
<path class="st19" d="M209.8,387.6c-2.7-5.4,2.1-8,4.5-11.2c2.1-2.8,3.8-5.5,5.1-8.9c1.7-4.4,6.2-7,10.6-9.3
	c4.9-2.6,10.6-1.8,15.8-3.8c5.8-2.3,10.4-6.1,15.2-9.6c3.1-2.2,6.4-2.4,9.5-3.7c3-1.3,2.9-2.9,2.5-5.4c-0.8-5.5-3.6-10.2-6.4-14.8
	c-5.3-8.8-4.9-17.4-0.1-26.2c1.5-2.8,2.7-5.6,1-8.6c-1.6-2.8,2-4.4,1.2-6.8c0.2-0.1,0.5-0.1,0.7-0.2c2.1,0.7,2.6,2.5,3.1,4.3
	c0.3,3.7,0.7,7.5-1.9,10.8c0,0.6,0,1.2,0,1.9c0.1,2.8-2,4.6-3.3,6.8c-0.1,0.4-0.2,0.8-0.2,1.3c-0.6,7.2,1.6,13.6,6,19.3
	c2.6,3.3,4.5,6.9,4.9,11.2c0.3,3.6,1.8,2.6,3.8,1.3c2.1-1.4,3-4.4,6.2-4.2c-1,4.4-3.4,7.7-7.5,9.7c-2,1-2.8,2.3-3.1,4.6
	c-0.4,3.3-1.9,6.1-5,7.7c-2.4-2.5,0.3-5.2-0.4-8.1c-4.6,0.9-8.8,2.5-12.6,5.2c-3.3,2.4-6.7,4.9-10.2,6.9c-2.7,1.5-5.5,2.7-8.7,2.6
	c-6.3-0.2-11.2,2.5-15.1,7.3c-1.1,1.3-2.3,2.5-3.5,3.6c-0.4,0.5-0.9,0.9-1.3,1.4c-0.9,6.2-6,9.7-9.1,14.5c-0.3,0.3-0.7,0.5-1.1,0.7
	C210.2,387.8,210,387.7,209.8,387.6L209.8,387.6z"/>
<path class="st38" d="M287.9,331.6c-2.4,2.1-4.6,4.4-7.1,6.2c-2.2,1.6-3.9,1.6-4-2c-0.1-4-1.2-7.6-4-10.8c-5.3-6.2-7.6-13.7-7-21.9
	c2.3,0.1,1.8,2.2,2.5,3.4c0.4,1.4,0.6,2.9,1,4.4c0.3,1.3,0.1,2.7,0.7,4c0.3,0.3,0.5,0.6,0.8,0.8c3.6,1.6,3,5.8,5.2,8.3
	c5.2,1.1,5.5,1.5,5.4,7c0.1,1.2-0.6,2.2-0.9,3.9c0.4-1.6,1-2.5,1-3.6c5.1-12.9,3.5-25.5-1.4-38c-1.2-3-3.6-5.3-5.4-7.9
	c-0.7-1.4-2.1-2.6-1.6-4.5c4.2-0.6,6.8,1.9,9.3,4.7C291,300.1,293.8,315.4,287.9,331.6L287.9,331.6z"/>
<path class="st39" d="M220.9,371.1c5.4-7.5,11.8-12.5,21.9-12.2c5.2,0.2,9.5-4,13.4-7.2c4.4-3.7,9.6-5.5,14.8-7.4
	c2.9-1.1,3.3,0.2,2.5,2.7c-0.8,2.2-1.4,4.4-1.1,6.7c-13.6,12.3-28.7,22.4-44.1,32.2c-4.4,2.7-9.2,4.1-14.4,3.7
	c-0.5-0.1-0.9-0.3-1.2-0.7c-0.5-2,1.4-2,2.3-2.8c0.8-0.5,1.5-0.9,2.4-1.1c8.6-2,16.1-6.3,23.2-11.4c6.4-4.6,12.8-9.3,19.3-13.8
	c3.9-2.8,7.1-6.1,9.5-10.3c0-0.3,1-1.2-0.5-0.8c-6.9,3.8-12.9,8.8-19.3,13.2c-3.7,2.5-7,4-10.8,0.7c-5,2.7-9.6,6.2-14.7,8.8
	C223,371.6,221.9,372,220.9,371.1L220.9,371.1z"/>
<path class="st40" d="M256.7,232.4c-0.1-0.1-0.3-0.2-0.3-0.3c0.3-7.8-3.1-15-3.4-22.7c-1.9-4.2,0.9-7.7,2-11.3
	c3.4-10.6,7.7-20.9,11.9-31.2c0.6-1.4,1.2-2.8,2.7-3.5c1.6-0.8,3.4-1.3,5.2-0.9c1.5,0.3,3.1,0.7,2.1,2.8c-3.1,15-7.8,29.6-11.9,44.4
	c-1.3,4.5-2.5,9-3.7,13.5c-1.8,1-0.6,4.7-3.9,4.3c-0.9-2.6,1.3-4.8,1.1-7.3c-0.1-1.6,1-3,1-4.7c4.2-14.1,9.7-27.8,13-42.3
	c0.3-1.5,0.7-3,1.1-4.4c0-0.1-0.1-0.3-0.2-0.4c-0.1-0.1-0.3,0-0.4,0.1c-3.6,5-4.5,10.9-6.2,16.6c-1.7,5.7-1.8,12.2-7.3,16.3
	c-1.4,1.5-1.7,3.4-2.1,5.2c-2.5,3.7,1.8,5.9,1.9,9.1c0,0.5-0.1,0.9-0.2,1.3c-0.3,3.6-2.5,6.9-1.6,10.7c0.6,0.6,0.5,1.2,0,1.9
	C257.3,230.5,257,231.4,256.7,232.4L256.7,232.4z"/>
<path class="st41" d="M199.7,411.6c4.7,1.1,3.8,5.1,3.4,8c-1.3,10.4-5,19.9-12.1,28.1c-0.9-0.8-0.4-4-3.3-2
	c-1.1,0.7-0.6-1.2-0.9-1.9c-2.3-8.3-1.4-16,4.7-22.4C194.6,418.3,196.2,414.1,199.7,411.6L199.7,411.6z"/>
<path class="st42" d="M290.6,89.8c0.4-3.9,2.7-6.9,4.7-10c0.3,0,0.6,0,0.8,0c1.8-1.1,3.7-1.5,5.5,0c2.6,7.2-0.8,13.6-2.8,20.2
	c-3.5,1.9-5.7,0.5-7.3-2.7c0-0.3,0-0.6,0-0.9C289.9,94.4,289.1,92.3,290.6,89.8L290.6,89.8z"/>
<path class="st43" d="M181.4,443.8c-1.6-2.7-1.1-5.7-0.9-8.4c0.8-10.5,5.7-19,13.8-25.6c-0.9,3.4-3.9,5.7-4.6,9.2
	c0.2,5.2-2.9,9.5-3.5,14.5c-0.2,2,0.2,4.4-2.1,5.7C182.7,440.4,183.1,442.7,181.4,443.8L181.4,443.8z"/>
<path class="st44" d="M184.1,439.1c1.8-6.8,2.4-13.8,5.6-20.2c3.4-2.3,5.1-7.1,10-7.3c-1.9,4.2-4.4,8-7.9,11.1
	c-4.3,3.8-4.3,9.2-4.9,14.2c-0.3,2.3-0.1,4.6-0.1,6.9C184.7,442.9,185.1,440.6,184.1,439.1L184.1,439.1z"/>
<path class="st45" d="M329.3,130.4c-3.3,2.2-6.7,4.1-10.9,3.7c-1.3-0.1-2.8-0.4-3.8,0.9c-1.2,0-2.4,0-3.7,0
	c-4.3-1.2-8.8-1.9-13.3-1.9c-0.6,0-1.7,0.3-1.5-0.9c0.2-0.8,1.1-0.8,1.9-0.9c9.3-1,18.7-0.9,28-2
	C327.2,129.1,328.4,129.4,329.3,130.4L329.3,130.4z"/>
<path class="st19" d="M212.6,388.6c5.4,0,10.5-1.2,15.6-2.8c-6.4,6.2-12.6,7.7-19.3,4.6C209.2,388,211.1,388.6,212.6,388.6z"/>
<path class="st2" d="M291.6,97.3c2.2,1.5,4.4,3.2,7.3,2.7c1.2,3.4-2.1,3.8-3.6,4.3c-2.7,0.8-4-2.3-5.6-3.8
	C289,99.8,289.4,97.5,291.6,97.3z"/>
<path class="st19" d="M282.4,285.7c-3-1.6-5.8-3.8-9.2-4.6c-1.8,0.5-2.3-1-3-2.1c0.1-0.2,0.1-0.4,0.2-0.6
	C275.6,276.9,279.6,279.4,282.4,285.7L282.4,285.7z"/>
<path class="st26" d="M276.9,165.3c-2-3.8-4.9-1-7.4-0.9c-1.2-1.6,0-2.6,0.8-3.7c0-0.3,0.1-0.6,0.2-0.9c1.2,0,2.4,0,3.6,0
	c1.8-1.1,3.2,0.1,4.6,0.9C278.4,162.3,278.1,164,276.9,165.3L276.9,165.3z"/>
<path class="st2" d="M290.6,89.8c-0.2,2.3,0.4,4.4,1,6.5c-1-0.6-1.8-0.4-2.8,0.3c-1.4,1-1.7-0.2-1.9-1.3
	C288.1,93.5,288.6,91.1,290.6,89.8L290.6,89.8z"/>
<path class="st2" d="M301.7,79.8c-1.8,0-3.7,0-5.5,0C299.6,75.6,299.8,75.6,301.7,79.8z"/>
<path class="st26" d="M257.6,227.8c1.7-1.1,1.5-3.8,3.7-4.6c-0.6,2.5-0.9,5.2-3.7,6.4C257.6,229,257.6,228.4,257.6,227.8
	L257.6,227.8z"/>
<path class="st39" d="M212.6,388.6c-0.8,1.5-2.9,0.3-3.7,1.8c-2.6-1.9,0.4-1.9,0.9-2.8l0,0C210.7,388.3,211.9,387.5,212.6,388.6
	L212.6,388.6L212.6,388.6z"/>
<path class="st19" d="M268.6,279.2c-0.8-0.5-1.6-1.8-1.1-2.2c1.2-0.8,2.1,0.4,2.9,1.2l0,0C270.1,279,269.2,278.7,268.6,279.2
	L268.6,279.2L268.6,279.2z"/>
<path class="st2" d="M278.7,160.7c-1.5-0.3-3.1-0.6-4.6-0.9C276.1,158.1,277.6,158.7,278.7,160.7z"/>
<path class="st34" d="M144.7,182.2c4.6-5.9,8.7-12.2,14.9-16.7c-5.9,9.5-12.4,18.5-16.2,29.8c-3.1-4.3-0.3-7.5,0.3-10.7
	C144.3,183.9,143.6,182.7,144.7,182.2L144.7,182.2z"/>
<path class="st46" d="M174.8,152.2c-2.1,3.4-5.4,5.7-7.5,9c-0.4,0.7-1.1,1.7-2.2,0.9c-0.9-0.7-0.5-1.7,0.2-2.4
	C168,156.6,170.8,153.7,174.8,152.2L174.8,152.2z"/>
<path class="st47" d="M144.7,182.2c0.1,1-0.2,1.8-1,2.4c-0.2-0.2-0.4-0.5-0.6-0.8c0.3-1.1,0.6-2.2,1.6-2.9
	C144.6,181.3,144.6,181.8,144.7,182.2L144.7,182.2z"/>
<path class="st48" d="M1303.3,120.3c-4.5-0.3-8.3,3.1-12.8,2.8c-0.2-2,1.6-1.8,2.6-2.5c1-0.4,2.1-0.7,3.2-1.1c2.2-0.8,4.4-1.2,6.6-2
	c17.5-5.6,35.5-9.3,53.6-12.7c0.5-0.1,1-0.2,1.5-0.3c4.8-0.9,9.6-1,14.4-1.9c2.1-0.2,4.2,0,6.4-0.2c3-0.3,4.7-1.3,3.8-5
	c-0.9-3.7-0.5-7.6-1.2-11.3c-0.3-1.5-0.2-3.1,1-4.3c0.1-0.1,0.2-0.3,0.3-0.4c0.7-0.7-0.1-2,0.9-2.6c1.7,8.2,2.1,16.6,2.8,24.9
	c-1.8,1.1-3.8,1.7-5.7,2.6c-0.9,0.3-1.9,0.4-2.9,0.4c-2.5,0-4.9,0.2-7.3,0.8c-20.8,2.5-41.1,7.1-61.2,12.7
	C1307.1,120.7,1305.2,121.8,1303.3,120.3L1303.3,120.3z"/>
<path class="st49" d="M1380.5,105.5c1.6-1.3,3.6-1.7,5.6-1.8c0.2,0.2,0.2,0.4,0.1,0.6c-0.6,1.3-1.8,1.2-2.9,1.2
	C1382.3,106.2,1381.4,106.4,1380.5,105.5L1380.5,105.5z"/>
<path class="st50" d="M1383.3,78.8c-0.3,0.9,0.2,2-0.9,2.6c0.1-2.4-0.9-4.8,0.7-7C1383.2,75.8,1383.3,77.3,1383.3,78.8L1383.3,78.8z
	"/>
<path class="st51" d="M1356.8,105.8c-11.1,2.4-22.2,4.8-33.3,7.3c-7.1,1.6-14.1,3.6-21.1,5.3c-0.3-0.2-0.4-0.4-0.3-0.7
	c-0.1-0.7-0.7,0.2-0.9-0.3c-2.7-2-6.2-2.5-8.8-4.8c-2-1.7-2.7-3.7-3.2-6.2c-2.4-11,4.8-16.3,12.4-21.3c0.5-0.4,1.1-0.9,1.6-1.3
	c-0.9-3.9,0.1-7.9-0.6-11.8c-0.1-0.9,0-1.9,1.1-2.2c0.9-0.2,1.4,0.6,1.7,1.3c0.7,2.2,2.2,3.6,4.2,4.5c2-6.8,1.1-13.1-3.5-18.6
	c-0.2-1.5-0.4-3.5,1.2-3.7c2-0.3,2,2.5,3.3,3.6c3.5,7.1,6.5,14.5,9.3,21.9c1,2.6,4.6,0.9,5.5,3.7c-0.1-4.4,1.7-6.8,5.4-7.2
	c1.7-0.7,2.6-2.7,4.5-3.2c0.6,0,1.2,0.1,1.5,0.6c1,1.8,1-0.5,1.5-0.3c2.2,0.8,2.2,3.1,3.1,4.8c0.9,1.6,1.1,3.5,3,4.4
	c1.3,0.5,2.1,1.7,3.7,2.1c1.2-2,0.5-4.3,0.8-6.5c0.3-2.5,1.4-3.6,3.9-2.7c0.4,0.1,0.8,0.4,1.2,0.6c4,3,7.6,6.4,11,10.1
	c1.9,2.1,3.1,4.4,2.7,7.4c-4.9,2-10.3,0.8-14.6,2.5c4.7-1,10.2-1.5,15.7-1.9c1.8,3,5.9,2.6,8,5.2c-1.5,0.9-3.2,0.1-4.6,0.4
	c-0.8,0-0.4,0.7-0.2,0.5c1-0.9,2.3-0.3,3.4-0.4c0.4,0.2,0.6,0.5,0.6,1c-0.1,0.4-0.4,0.7-0.7,0.9c-1.6,0.5-2.2,1.9-3.3,3
	c-4.9,1.1-9.8,1.7-14.8,2c0-0.3-0.1-0.5-0.3-0.4C1356.9,105.3,1356.8,105.5,1356.8,105.8L1356.8,105.8z"/>
<path class="st52" d="M1301.6,85.1c-2.2,3.5-5.7,5.8-8.6,8.6c-2,1.9-3.9,3.8-2.6,7c0.3,0.8,0.1,1.8,0.1,2.7
	c0.1,7.5,1.5,9.5,8.8,11.2c2,0.4,1.9,2.1,3.1,2.9l0,0c0,0.3,0,0.7,0,1c-1.9,1.3-4.2,1.6-6.4,2.1c-0.7-0.3-1-1-1.6-1.4
	c-1.1-0.1-0.6,0.8-0.7,1.3c-0.1,0.3-0.2,0.7-0.5,0.9c-0.9,0.5-1.9,1.1-2.8,1.6c-7.7,2-14.7,5.6-22.1,8.3l-0.3-0.3l0.3,0.3
	c-2.3,1.6-4.6,2.9-7.2,3.8c-0.2-0.4-0.1-0.4,0.1,0c-4.9,4.7-3.5-1.3-4.8-2.8c-1-2.4,1-3.2,2.3-4.3c4.9-4,10-7.5,16-9.6
	c1-0.3,1.9-0.8,2.4-1.5c-1.5,1.2-3.1,2.3-5.1,0.6c1.4-2.8,4.4-1.7,5.8-2.9c-3.7,0.4-7.4,3.2-11.6,4c-1.3,0.3-1.1,2.1-2.4,2.4
	c-4.6,0.8-7.5-1.7-10-5.1c-0.3-3,0.3-6-0.2-9c0-0.5,0.2-0.9,0.4-1.4c0.8-1,1.7-1.8,3.1-0.8l1.1,1c0.5,0.4,1,0.5,1.6,0.8
	c0.8,0.5,1.4,1.3,2.4,1.5c1.2-2.5-0.1-5.2,1-7.6c0.9-1.5,2.1-1.9,3.7-1.4c1.1,0.4,2.2,0.9,3.3-0.1c0.5-0.4,0.9-0.8,1.3-1.2
	c0.6-0.8,1-1.7,1.1-2.7c0.1-1.6-0.9-2.6-2.1-3.5c-5.5-1.5-5.9-2.3-3.9-7.5c1.7-1.8,2.3,0.2,3.3,1.2c-0.8-1.4-1.5-2.5-3.1-2.4
	c-0.4-0.3-0.8-0.6-0.8-1.1c-0.1-1.6-0.9-3.9,0.8-4.6c1.5-0.6,2.4,1.5,3.2,2.7c1.2,1,1.1,3,2.9,3.5c3.1,2.8,5.5,6.1,8,9.4
	c1,1.3,1.9,2.8,3.7,3.2c1.1,0.4,2.2,1.3,2.1-1.1c-0.1-2.4-2.1-4.9,0.4-7.1c0.4-0.1,0.8-0.2,1.2-0.1c4.7,1.1,5.3,0.7,6.5-4.4
	c0.1-0.4,0.2-0.8,0.4-1.1c0.4-0.7,1-1.2,1.5-1.7c0.3-0.3,0.6-0.4,0.9-0.6C1299.1,81.5,1300.3,83.3,1301.6,85.1L1301.6,85.1z"/>
<path class="st53" d="M1310,77.9c-2-2.4-6.8-2.5-5.4-7.6l-1.4,0.2c0,4.4,0,8.8,0,13.3c-0.8-8.3-1.6-16.6-2.3-25
	c-0.8-10-1.4-20-1.4-30.3c3.7,9.4,7.5,18.9,11.2,28.3c-1.7-0.3-1.6-2.5-3.1-3c-1.1,0.8-0.4,2-0.5,2.9c-0.3,0.3-0.5,0.7-0.7,1
	c-0.9,1.7-1.1,3.5-1.4,5.3c-0.6,1.7,0,3.1,0.9,4.4c1,1.5,2.1,3,2.8,4.7c0.5,1.3,1.1,2.6,1.6,3.9C1310.4,76.7,1310.4,77.3,1310,77.9
	L1310,77.9z"/>
<path class="st54" d="M1284.1,96.4c-0.4,0-1.1,0.3-1.2,0.1c-3.4-4.3-7.2-8.4-9.8-13.3c0.3-0.6,0.6-1.1,0.9-1.7
	c2.2-4.3,0.8-8.4-0.9-12.3c-0.7-1.6-1.2-2.7,0-4.1c0.7-0.8,1.6-1.1,2.4-0.7c1.4,0.8,1.5,2,1.5,3.7c0,3.1,2.1,5.7,4.2,9.3v-6
	c1.2-0.7,0.9-2,1.2-3.1c1.7,0.5,2,1.9,1.9,3.3c-0.2,6.7,1,13.3,1.1,20C1285.4,93.4,1285.4,95.1,1284.1,96.4L1284.1,96.4z"/>
<path class="st55" d="M1296,81.6c0,0.4-0.1,0.8-0.1,1.1c-1.3,0.3-2.2-0.7-3.4-1c-2.6-1.2-3.5,1.1-4.9,2.4c-0.7,0.5-1.3,0.6-2,0
	c-2.4-5.9-1.2-12.3-2.4-18.3c-0.4-2.3-0.8-4.8-0.6-7.2c0.1-0.9-0.1-1.9,1.3-1.8c2.7,4.2,5.6,8.3,7.6,12.8c-0.4,3.5-0.4,6.7,3.3,8.7
	C1296.1,79,1297.1,80,1296,81.6L1296,81.6z"/>
<path class="st56" d="M1331.8,76.1c-0.5,0.7-1.2,1.1-1.9,0.8c-3.7-1.5-3.8,0.4-3,3.2c0.3,1.1,0.3,2.4,0.3,3.6c0,0.8-1,1.8-1.3,1.1
	c-1.4-2.6-4.6-3.4-5.8-6c2.7,2.3,2.5-0.1,2.7-1.7c0.7-8.2,1.3-16.3,1.9-24.5c1.2-2,0-4.3,0.8-6.2c1-2.3,1.2,0,1.6,0.6
	c0.9,6.6,0.5,13.3,0.7,20C1327.2,70.7,1328.3,73.9,1331.8,76.1L1331.8,76.1z"/>
<path class="st57" d="M1284,56.9c-2.4,3.1,0,6.2,0.1,9.2c0.3,6.1,0.9,12.3,2.5,18.3c1.3,0.9,1.6,2.1,1.2,3.6c-1.9,3.6,1,7,0.4,10.6
	c-2.1,0.5-2.6-1.8-4.1-2.2c-0.5-9.3-0.3-18.7-1.8-27.9c0-4.5,0-8.9,0-13.6C1283.4,55.4,1283.8,56,1284,56.9L1284,56.9z"/>
<path class="st58" d="M1296,81.6c-0.1-1.1-0.5-2.2-1.6-2.5c-5.5-1.4-3.2-6.3-4.4-9.6c0.6,0,1.1,0.1,1.7,0.1c1.8,2.2,3.3,4.6,4.4,7.2
	c0.7,1.2,1.1,2.6,1.7,3.9C1297.4,81.5,1296.7,81.6,1296,81.6L1296,81.6z"/>
<path class="st59" d="M1280.3,43.4c1.6,0.7,2.7,1.7,2.7,3.7c0,2.4-1.8,2-3.2,2.3c-2,0.3-2.2-1.3-2.2-2.6
	C1277.7,45.1,1278.5,43.8,1280.3,43.4L1280.3,43.4z"/>
<path class="st60" d="M1299.4,17.4c-0.3,2-1.4,3.3-3,3.2c-1.4-0.1-3-1.3-2.6-2.9c0.2-1.1,0.8-3,2.3-2.9
	C1297.6,14.9,1299.2,15.7,1299.4,17.4L1299.4,17.4z"/>
<path class="st61" d="M1297.8,63.3c2-2.6,0.1-5.7,1.1-8.4c1,3.3,0.5,6.7,1,10.1c0.2,1-0.2,1.3-1.2,1.1
	C1298.1,65.3,1297.6,64.4,1297.8,63.3L1297.8,63.3z"/>
<path class="st62" d="M1300.1,78c-1.3-1-2.7-1.9-1.9-3.8c0.1-0.3,0.9-0.7,1.1-0.5C1301.3,74.7,1300.1,76.5,1300.1,78L1300.1,78z"/>
<path class="st63" d="M1320.5,73.4c-0.7-1.5-2.4-2.7-1.1-4.4c0.2-0.2,1.1-0.3,1.2-0.1C1321.7,70.4,1321,71.9,1320.5,73.4z"/>
<path class="st51" d="M1297.8,80.7c-1.2-1-1.8-2.3-1.7-3.9c1,0.7,1.6,1.7,1.8,2.9C1297.8,80.1,1297.8,80.4,1297.8,80.7z"/>
<path class="st64" d="M1298.6,66.1c0.4-0.4,0.8-0.7,1.2-1.1c0.5,0.9,1.3,2,0,2.6C1298.9,68,1298.8,66.8,1298.6,66.1L1298.6,66.1z"/>
<g>
	<path class="st15" d="M1255.7,137.8C1255.7,137.8,1255.7,137.8,1255.7,137.8C1255.7,137.8,1255.7,137.8,1255.7,137.8L1255.7,137.8z
		"/>
	<path class="st15" d="M1450.8,202.3c-4.2-5.6-7.5-12.3-14.6-15.4c-7.5-3.3-13.6-8.1-16.3-16.3c-0.9-2.8-2.7-5.4-6.2-5.2
		c-3.5,0.2-4.8,2.8-5.1,6.5c-3.5-4.4-6.9-3.9-10.6-1c-1.5,1.2-3.2,2.8-5.3,2.3c-3.5-0.9-6.3-0.1-8.7,2.6c-1.1,1.2-2.8,1.5-4.2,1.5
		c-7.5,0-14.9,1.2-22.5,0.4c-7.5-0.8-14.9-0.4-22.4,0.4c-10.7,1.2-21.4,1.2-32.5-1.1c2.7-1.6,4.9-3,7.2-4.4l0,0c0,0,0,0,0,0
		c2,0.1,3.4-1.3,5-2c12.7-5.5,25.5-11,38.1-16.7c11.4-5.1,22.7-7.3,34.9-2.7c5.4,2,10.1-0.4,14.3-4.8c6.6-6.9,5.4-17.6,0.5-26.2
		c-1.9-3.3-4-6.3-7.8-7.6c0,0-0.1,0.1-0.1,0.1c-2.8-2.8-5.3-6-8.5-8.3c-1.3,0-2.6,0.2-3.6,1.1c0,0-0.1,0.1-0.1,0.1c-0.7,0-1.4,0-2,0
		l0,0c-0.9,0-1.8,0-2.7,0c0,0,0,0,0,0l0,0c-2.5,0.1-5-0.5-7.4,0.9c0,0,0,0,0,0c-11.1,0.5-21.9,3-32.6,5.3c-11.5,2.5-23,5.6-34.4,8.5
		v0c-4.2,2.7-9.5,2.8-13.8,5.5c0,0,0,0,0,0c-2.7,0.3-5.3,0.8-7.4,2.8c0,0,0.1,0,0.1,0c0,0-0.1,0-0.1,0c-4.2,1-8.2,2.2-11.8,4.5
		c0,0-0.1,0-0.1,0c-3.7,0.6-6.5,3.1-9.5,4.9c-2.1,1.3-3.4,1.2-5-0.3c-1,0.8-1.9,1.6-2.9,2.4c-5.5,0.9-9.3,4.5-12.9,8.4
		c-3.9,1.7-7.3,4.2-10.2,7.2c0,0,0,0,0,0c-1.5,1-3.1,1.9-4.6,3c-18.6,14.6-36,30.3-52.1,47.6c-15,16.1-27.8,33.5-36.3,54
		c-4,9.6-7,19.4-10.3,29.2c-2.4,7-5.2,14.2-5.9,21.5c-1.4,16.3,3.4,31.8,13.3,44.3c21.6,27.2,50.3,37.5,84.6,30.7
		c5.2-1,10.3-2.4,16.1-3.7c-2.9,5.6-5.6,10.9-8.3,16.1c-4.5,8.5-9.2,16.9-13.4,25.5c-2.9,5.8-1.8,8.8,3.5,12.5
		c4.8,3.3,10.1,5.7,15.7,7.4c3.4,1,6.8,2.1,9.8-1.2c1-1.1,2-0.2,3,0.1c4.9,1.6,9.8,2.4,14.9,1.9c1.2-0.1,2.4-0.3,3,1.3
		c3.2,8.9,11.2,11,19,13.2c3.1,0.9,5.7-0.4,6.5-4.1c0.8-3.4,1.8-6.8,2.6-10.2c3.6-14.5,11.1-27.4,16.9-41
		c10.7-25.2,25.4-48,40.7-70.5c5.7-8.4,11.5-16.6,15.2-26.1c2.1-5.4,5.1-10.2,9.5-13.9c12.4-10.4,21.2-23.5,28.9-37.5
		c0.8-1.5,1.9-2.7,3.3-3.7c10-7,17.6-15.9,23.1-26.7c2-3.9,4.1-7.9,9.7-7.6c1.5,0.1,3.3-0.9,3.7-2.3c0.9-3.3,3.5-4.2,6.2-5.4
		C1451.5,208.6,1453,205.2,1450.8,202.3z M1179.8,269.7C1179.8,269.7,1179.8,269.7,1179.8,269.7c-3.8,3.5-5.7,7.2-9.2,9.2
		c-1,0.5-2.1,2.1-3.5,0.4c-1.3-1.5,0.4-2,0.8-3C1169.9,271.4,1174.2,270.5,1179.8,269.7C1179.8,269.7,1179.8,269.7,1179.8,269.7
		L1179.8,269.7z M1339.1,144.2c1.4-0.2,2.2-1.5,3.3-2.2c3.1-1.9,6.3-3.3,9.9-1.9c-2,1.9-4,3.5-6.7,4.3
		C1343.2,145.2,1341,145.8,1339.1,144.2z M1248.8,427.3c-4.3,0.7-9-1.6-12.9,1.4c-1.8,1.4-3.4-0.7-5.1,0.1c-0.7,0.3-1.3-0.7-1.3-1.5
		c0-1,0.5-1.6,1.4-2.1c2.5-1.5,5-2.9,7.9-3.4c3.9-0.6,7.8-1.3,11.4-3c2.9-1.4,3.9,1.8,6,1.8l0,0
		C1256.5,423,1250.9,426.9,1248.8,427.3z M1244.4,340.7c1.5-2.3,3.5-4.1,5.8-5.7c1.1-0.8,2.3-1.1,3.2,0.1c0.9,1.1,0,2-0.8,2.7
		c-2.3,1.9-3.7,4.8-6.8,5.8v0C1244.1,343.1,1243.3,342.3,1244.4,340.7z M1282,248.3c2.2,4.3,0.5,7.3-2.3,10.2
		c-12.3,12.8-26.3,23.7-40.5,34.3c-8.5,6.4-17.9,11-27.5,15.2c-4.8,2.2-10.1,1.8-15.3,2.1c-2,0.1-3.2-0.9-2.4-3.4
		c4.6-15.3,6.6-31.2,13-46c2.3-5.4,5.6-10.1,9.8-14.1c13.2-12.8,26.9-24.9,39.2-38.6c6.2-7,14.9-10.9,23.4-16.4l0,0
		c-0.1,2.2,0.1,3.5-0.3,4.6c-2.2,5.8-0.6,10.5,1.4,16.3c2.6,7.9,4.8,17.1,1.5,25.9C1280.6,241.8,1280.4,245.3,1282,248.3z
		 M1383.8,236.9c-1.6,1.5-3,3.2-5.8,2.1c-2-0.8-2.4-1.5-1.5-3.2c2.2-4.2,6.5-6.1,9.7-9.4l0,0c0.4,1.6-0.5,2.5,0.5,4.1
		C1388.2,232.9,1385.7,235.1,1383.8,236.9z"/>
</g>
<path class="st65" d="M1272.1,117.5c1.9-0.2,3.8-0.5,6.6-0.8c-3.2,2.7-6.4,3.6-9.2,5.3c-4.8,2.9-9.8,5.4-13,10.2
	c-3-7.7-6.1-15.4-9.2-23.1c1.8-0.9,3.2,0.3,4.6,0.2c1.2,2,1.1,4.6,2.7,6.5c3,2.3,5.7,5.3,10.1,4.4c1.8-1.9,4.3-2.4,6.8-2.7
	C1271.7,117.5,1271.9,117.5,1272.1,117.5L1272.1,117.5z"/>
<path class="st66" d="M1271.2,99.3c-1.1,1.7-2.5,2.2-4.1,0.8c-1.2-1-2.2-0.6-3.3,0c-2.4-2.9-1.1-6.5-1.8-9.7
	c-1.3-6.6-0.8-13.3-0.5-20c0-0.8,0.1-1.5,1.2-1.4c2.5,3.6,5.7,6.7,7.4,10.9c-0.9-0.7-1.8-1.4-3.5-2.7c1.1,2.2-0.7,3.8,0.8,5.4
	c0.2,0.2,0.3,0.4,0.2,0.6c-0.1,0.2-0.1,0.3-0.2,0.3c-2.8,5.1,0.8,6.4,4.4,7.7c-1.1,0.9-2.7,0.5-3.8,1.1c-1.9,1.1-2.9,2.6-1.1,4.7
	c0.3,0.2,0.7,0.4,1,0.6C1269.1,98.1,1270.5,98.1,1271.2,99.3L1271.2,99.3z"/>
<path class="st67" d="M1257.2,104.7l-2.4,0.9c-2.3-3.2-4.8-5.4-8.8-2.4c-0.4,0.3-1.2,0.1-1.3-0.7c-2.3-6.4-4.6-12.7-7.4-20.2
	C1244.5,90.3,1251.6,96.8,1257.2,104.7L1257.2,104.7z"/>
<path class="st68" d="M1262.8,68.9c-2.1,6.5-0.4,13,0.3,19.3c0.4,4,0.5,7.9,0.7,11.8c0.1,2.9,0.2,5.8,0.2,8.7c0,2.2-1.2,0.6-2,0.5
	c-0.8-1-1.6-2.1-2.9-2.6c-0.3-0.3-0.6-0.7-0.9-1c2.7-0.2,1.9-2.3,1.9-3.8c0.2-10.8,0.4-21.7,0.6-32.5c0-0.8-0.7-2,0.8-2.1
	C1262.2,67.2,1262.7,68,1262.8,68.9L1262.8,68.9z"/>
<path class="st69" d="M1257.8,100.6c-2.2-1.8-5.4-2.8-4.4-6.1c0.5-1.4,2.5-2.5,3.7-1.7C1260,94.9,1257.5,97.9,1257.8,100.6
	L1257.8,100.6z"/>
<path class="st70" d="M1252.7,107c-1.9,1.1-3.7,0.7-5.4-0.6c-1.5-2-0.9-3.7,1.1-4.9c1.7-1,3.2-0.2,4.4,1
	C1254.5,104.1,1254.5,105.6,1252.7,107L1252.7,107z"/>
<path class="st71" d="M1252.7,107c0.5-1.5,1.4-3-0.5-4.4c-1.1-0.8-2.2-1-3.3-0.5c-1.9,0.8-1.6,2.6-1.6,4.3c-1.6-0.8-2.9-1.8-2.7-3.9
	c0.6-0.1,1.2,0,1.6-0.3c4.4-3.1,7.5-1.9,8.4,3.4c-0.1,0.3-0.2,0.6-0.2,0.9c-0.8,0.4,0.1,2.6-1.9,1.8L1252.7,107L1252.7,107z"/>
<path class="st67" d="M1252.7,108.2c0.6-0.6,1.2-1.2,1.9-1.8c0.9,3.1,0.9,6.2,0,9.3c-2.8-1.4-3.3-3.7-2.7-6.5
	C1252.2,108.9,1252.4,108.6,1252.7,108.2L1252.7,108.2z"/>
<path class="st72" d="M1235.4,74.6c0,2.3-2.1,2.6-3.1,2.8c-1.7,0.2-1.7-1.7-1.7-3c0-1.6,0.9-2.6,2.6-2.5
	C1234.9,72,1235.4,73.3,1235.4,74.6z"/>
<path class="st73" d="M1256.8,59.3c0.4-1.2,0.7-2.6,2.2-2.6c1.8,0,2.1,1.3,2.2,2.8c0.1,1.7-1,1.9-2.3,2.1
	C1257.1,61.8,1257.2,60.4,1256.8,59.3L1256.8,59.3z"/>
<path class="st74" d="M142.8,433.5c0.3,0.3,0.6,0.6,0.9,0.9c0.8,1.9,0.6,3.7,0,5.6c-1.5,7-2.1,14.3-8.2,19.3
	c-0.2-0.2-0.3-0.3-0.5-0.5c-0.3-0.7-0.3-1.3-0.2-2c1.8-5.4,4.4-10.6,5.9-16.1c0.6-2.1,1-4.1,0.8-6.2
	C141.6,433.8,141.9,433.2,142.8,433.5L142.8,433.5z"/>
<path class="st75" d="M129,452.9c1.2-3.4,2.4-6.7,3.6-10.1c1.4-1.4,0.4-5,4-4.4c0.6,4.4-2,8.1-2.8,12.2c-0.5,2.8-1.9,5.4-1.6,8.4
	c0,0.5-0.2,0.9-0.5,1.3c-2.2,1.5-2.5-0.2-2.7-1.7C128.9,456.7,129,454.8,129,452.9z"/>
<path class="st76" d="M136.3,438.2c-2.1,0.8-1.9,3.5-3.7,4.6c0-3.3,2.1-5.7,3.7-8.2c2.1-0.5,4-2.8,6.5-1c-0.3,0.3-0.7,0.6-1,0.9
	C141.3,439.7,140.3,440.3,136.3,438.2z"/>
<path class="st74" d="M131.7,460.3c0-0.4-0.1-0.8-0.1-1.2c-0.6-1-0.3-1.7,0.8-2c1.7-0.2,2,1.4,3,2.2l0,0
	C135.1,463.4,133,460,131.7,460.3L131.7,460.3z"/>
<path class="st76" d="M143.7,440.1c0-1.9,0-3.7,0-5.6C146.3,436.4,144.4,438.2,143.7,440.1z"/>
<path class="st77" d="M1352.1,47.7c0.3-0.6,0.6-1.3,0.8-1.9c3.1,5.8,6.1,11.7,9.2,17.5c-0.3,0.3-0.5,0.6-0.8,0.9
	c0.3,0.4,0.2,0.8-0.1,1.1c-2.8-0.7-3.2-3.4-4.5-5.3c-1.2-4.1-4.3-7.4-4.9-11.7C1351.9,48.1,1352,47.9,1352.1,47.7L1352.1,47.7z"/>
<path class="st78" d="M1372.2,103.7c-0.1-2,0-4,2.9-3.6c0.3,0.4,0.6,0.6,0.8,0c0-0.3,0-0.6,0-0.9c0.2-0.4,0.5-0.7,0.9-0.9
	c-0.5-0.3-1-0.9-1.5-0.9c-3,0.3-5.2-0.4-5.8-3.7c-0.1-1.1-1.4-1.1-1.8-1.9c-1.9-6-6.7-9.6-11.1-13.5c-1-0.9-2.6-1.2-2.7-2.8
	c0.7-1.3,2.3-1.5,3.1-2.6c1.3-1,1.2-2.9,2.3-4.1c2.7-0.1,2.8,2.6,4.2,3.9c0.4,1.2,1.4,0.6,2.2,0.6c1.6,0.8,1.8,2.8,3.3,3.9
	c1.6-0.7,1-2.7,2.1-3.7c2.5-1.5,4.3,2.2,6.8,1c0.6,0,1.2,0.1,1.8,0.4c1.5-0.9,1.8,0,2,1.2c0.2,1.9,0.5,3.8,0.7,5.8
	c0.5,5.1,0.8,10.3,1.6,15.4c0.6,4-0.1,6.4-4.8,6.3C1376.8,103.4,1374.5,103.6,1372.2,103.7L1372.2,103.7z"/>
<path class="st79" d="M1363.1,73.4c-1.4-1.5-2.7-3.1-4.1-4.6c-0.8-0.1-1.2-0.6-1.6-1.2c-1.6-3.1-4.6-5.4-5.4-9
	c-0.3-1.5-1.6-3.6,0.4-4.5c1.6-0.7,2.5,1.4,3.3,2.6c0.7,1,1.2,2.1,1.9,3.1c1.2,1.8,2.3,3.5,3.5,5.3c1.4,1.2,0.6,3.3,1.9,4.6
	c0,0.3,0,0.5,0,0.8C1363.7,71.5,1363.9,72.5,1363.1,73.4L1363.1,73.4z"/>
<path class="st80" d="M1373,67.9c1.3-4.6,2.6-9.1,4-13.7c0.5-0.3,1-0.2,1.3,0.3c0.2,4.1,1.5,8.1,1,12.2
	C1375.8,69,1375,69.2,1373,67.9L1373,67.9z"/>
<path class="st81" d="M1371.4,73.6c-0.3,2.2-0.1,5.3-2.2,5.7c-2,0.4-2-3.1-3.3-4.6c-0.4-0.4-0.7-0.9-1-1.4c-0.2-0.3-0.2-0.6,0.1-0.8
	c0.7-0.4,0.8-1.1,0.9-1.9c1.4-0.3,1.8,0.8,2.4,1.8c0.9-1.8,0.5-4.1,2.2-5.4c0.6,0.9,1.1,1.8,1.7,2.7
	C1373.2,71.2,1372.2,72.4,1371.4,73.6L1371.4,73.6z"/>
<path class="st82" d="M1370.4,67c0.4,2.6-1.1,4.9-1.3,7.5c-2.2-0.4-1.8-3-3.3-3.9c-0.3-1.3-2.4-2.5-0.9-3.8
	C1366.6,65.4,1368.6,66,1370.4,67z"/>
<path class="st83" d="M1371.4,73.6c-0.4-1.4,0.3-2.7,0.7-4c0.1-0.7,0.1-1.4,0.9-1.8c1.9,0.6,3.6-1.9,5.6-0.4
	c0.8-0.1,1.2,0.4,1.4,1.1c0,0.7-0.3,1.3-1,1.5c-6.7-0.2-1,3.4-1.5,5C1374.7,77.9,1373.6,73.4,1371.4,73.6L1371.4,73.6z"/>
<path class="st84" d="M1379.8,68.9c-0.4-0.5-0.9-1-1.3-1.4c0.2-4.5-1.4-8.9-0.8-13.4c-0.6-1.1-0.7-1.9,0.9-1.7
	c1.2,5.5,2,11,1.7,16.6C1380.2,68.9,1380,68.9,1379.8,68.9z"/>
<path class="st85" d="M1377.5,75.1c-1.8-1.1-4.5-1.8-3.1-4.8c0.9-2,2.6-2.1,4.4-0.7c0,1-0.3,2.2,0.9,2.8c0,0.8-0.1,1.5-0.1,2.3
	C1379,75.5,1378.2,75.1,1377.5,75.1L1377.5,75.1z"/>
<path class="st86" d="M1378.7,37.3c1.8,0.4,2.6,1.5,2.6,3.2c0,0.9-0.2,1.9-1.5,1.5c-1.2-0.4-3.2,0.1-3.1-2.2
	C1376.8,38.4,1377.4,37.5,1378.7,37.3z"/>
<path class="st87" d="M1379.6,72.5c-0.6,0.1-1.5,0.4-1.6,0.3c-0.5-1.1-0.5-2.3,0.7-3.1c0.4-0.2,0.7-0.5,1.1-0.7c0.2,0,0.4,0,0.6,0
	C1380.2,70.1,1379.9,71.3,1379.6,72.5L1379.6,72.5z"/>
<path class="st81" d="M1363.1,69.7c-1.9-1-1.5-3-1.9-4.6c0.1-0.3,0.1-0.7,0.2-1C1362.8,65.7,1363.3,67.6,1363.1,69.7z"/>
<path class="st88" d="M1378.7,52.3c-0.3,0.6-0.6,1.1-0.9,1.7c-0.3,0.1-0.5,0.1-0.8,0.1c-0.3-2,0.7-3.7,1.2-5.8
	C1379.1,49.7,1378.8,51,1378.7,52.3L1378.7,52.3z"/>
<path class="st89" d="M1365,72.4c-0.1,0.3-0.1,0.6-0.1,0.8c-0.2,0.5,0.1,1.3-0.7,1.3c-0.4,0-0.8-0.7-1.1-1.1c0-1,0-1.9,0-2.9
	C1363.7,71.2,1364.3,71.8,1365,72.4L1365,72.4z"/>
<path class="st90" d="M296.2,125.8c-0.2-3.7,2.8-5.4,5.1-7.2c8-6.4,24-1.8,27.7,7.6c0.3,0.7,0.2,1.5,0.3,2.3
	c-0.5,0.5-1.2,0.6-1.9,0.5c-1.5-0.4-2.7-1.3-3.7-2.5c-5.9-7.3-13.9-8.1-21.7-2.2c-0.3,0.3-0.6,0.7-0.9,0.9c-0.9,0.7-1.9,1.1-3.1,1.3
	C297.3,126.5,296.7,126.3,296.2,125.8L296.2,125.8z"/>
<path class="st91" d="M327.5,128.5c0.6,0,1.2,0,1.8,0c0.9,0.6,0.9,1.3,0,1.9c-8.9,0.6-17.7,1.2-26.6,1.8c-1.6,0.1-3.4,0.6-4.7-0.9
	l0,0c0.9-1.2,2.5-2.6-0.6-3.2c-1.3-0.2-2.3-0.7-1.3-2.3v0c0.6,0,1.2,0,1.8,0c1.3,0.7,2.3-0.3,3.4-0.7c1.1-0.4,2.2-0.5,3.3-0.4
	c2.2,0.5,4.5,0.9,3,4c-0.1,0.1-0.1,0.2-0.3,0.3c-0.5,0.2-0.5,0.4,0,0.4c3.6-0.1,7.2-0.9,10.8-1.1c2.8-0.2,5.7-0.1,8.6,0.2
	C327.1,128.5,327.3,128.5,327.5,128.5L327.5,128.5z"/>
<path class="st45" d="M296.2,125.8c0.8,3.6,4.4,0.6,6.1,2.7c-0.9,1.6-2.8,1.9-4.2,2.8c0.1-1.6-0.4-2.3-2.1-2.9
	C293.2,127.5,295.2,126.6,296.2,125.8L296.2,125.8z"/>
<path class="st92" d="M1353.1,75.2c-1.8-0.3-3.4-0.4-3,2.3c0.1,0.9,0,1.8,0,2.7c0,1.8,0.5,4.2-1.1,5.2c-2,1.2-2.1-2-3.6-2.4
	c-0.6-0.1-1.2-0.3-1.7-0.5c-0.4-2.7-0.3-5.2,1.8-7.3c0.1-0.9,0.1-1.8,0.2-2.6c2.1-8.1,2.6-16.3,3.8-24.5c0.1-0.9-0.1-2.1,1-2.2
	c0.6,0,1.2,1.2,1.7,1.9l-0.4,0.1c1.1,3.9-0.4,7.7-0.3,11.6c0.1,2.3-0.1,4.5,0.7,6.7c0.2,0.4,0.3,0.8,0.3,1.3
	c-0.1,1.7-1.8,3.3-0.3,5.1c0.2,0.3,0.5,0.7,0.7,1C1353.1,74,1353.3,74.5,1353.1,75.2L1353.1,75.2z"/>
<path class="st93" d="M1327.4,68.1c-2.1-2.8-1-6.1-1-9.2c0-4-0.8-8.1,0.6-12c1.4,3.4,3.7,6.4,4,10.3c-1.8,0.7-0.9,1.8-0.5,2.9
	c0.7,1.9,2.3,3.5,1.7,5.8c-1,1.5-2.9,1.3-4.3,2.1C1327.8,68,1327.6,68,1327.4,68.1L1327.4,68.1z"/>
<path class="st94" d="M1331.7,66.2c-0.2-2.9-2.3-5.1-3.2-7.7c-0.3-0.7-0.5-1.6,0.1-2c0.9-0.7,1.6,0.3,2.3,0.7
	c3.3,4.4,4.6,9.8,7.3,14.4c0.3,0.2,0.4,0.5,0.3,0.7c-0.1,0.2-0.2,0.3-0.3,0.3c-1.2,3.2-1.8-0.8-2.7-0.3c-0.9-0.5-1.4-1.3-1.9-2.1
	c-0.6-1-1.4-1.8-1.9-2.8C1331.6,67,1331.6,66.6,1331.7,66.2L1331.7,66.2z"/>
<path class="st95" d="M1338.3,72.6c0-0.3,0-0.7,0-1c0.6-0.6,1.3-1.2,1.9-1.7c0.9,0.7,1,2,2,2.7c0.8-0.7,0.6-2,1.4-2.7
	c2.3,1.2,0.1,4,1.9,5.3c-0.6,2.4,0,5.2-1.8,7.3C1340.4,79.9,1340.5,75.6,1338.3,72.6L1338.3,72.6z"/>
<path class="st96" d="M1326.5,35.5c1.3,1.4,0.9,2.9-0.6,3.1c-1,0.1-2.6,1.1-3.7-0.4c-0.8-1.1-0.9-2.4-0.4-3.5
	c0.7-1.6,1.9-2.3,3.5-0.9C1325.4,34.7,1325.3,35.6,1326.5,35.5L1326.5,35.5z"/>
<path class="st97" d="M1343.6,69.8c0,1.8,1.4,4.8-1,5c-2.1,0.2-2.4-2.9-2.4-5.1C1341.3,69.8,1342.4,69.8,1343.6,69.8z"/>
<path class="st98" d="M1326.5,35.5c-0.2,0.8-0.3,2.2-1.4,1.5c-1.3-0.8-1.3-2.2,0.2-3.2C1325.8,34.4,1326.2,35,1326.5,35.5z"/>
<path class="st99" d="M1349.1,40.1c-2,0-2.5-1.1-2.5-2.7c0-1.3,1-1.9,2.1-1.9c1.7,0,2.4,1.2,2.6,2.6
	C1351.4,39.8,1350.4,40.3,1349.1,40.1L1349.1,40.1z"/>
<path class="st100" d="M219.1,319.7c-2.8,1.2-5.5,2.4-8.3,3.6c-0.5-0.5-0.8-1.1-0.6-1.6c2-4.6,3.1-9.4,5.2-13.9
	c4.3-0.6,8.4,1.2,12.6,0.9c3,3.3,3.1,4-0.6,6.1C224.7,316.3,222.7,319.3,219.1,319.7L219.1,319.7z"/>
<path class="st101" d="M215.4,307.7c0.8,5.9-3.3,10.3-4.6,15.6c-2.7,3.2-6.1,5-10.3,5.5c1.9-2.7,5-4.2,7.1-6.8
	c3.5-4.5,3.3-10.1,5-15.1C213.7,306.8,214.8,306.6,215.4,307.7L215.4,307.7z"/>
<path class="st102" d="M219.1,319.7c3.2-3,6.8-5.5,10.7-7.6c-0.3-1.4-2.1-1.9-1.8-3.5c1.8-1.3,3.7-1.2,5.6-0.5
	c2.7,1.1,3.2,3.7,0.8,5.1c-4.4,2.6-9.1,4.8-13.6,7.1C220.2,320.7,219.4,320.7,219.1,319.7L219.1,319.7z"/>
<path class="st103" d="M270.4,160.7c-0.3,1.2-0.6,2.5-0.8,3.7c-6.4,14.7-12.9,29.3-16.6,45c-1.8,1.8-1.1,4.6-2.7,6.5
	c-2.9-6.9-0.1-13.1,3.1-18.9c3.9-7.1,5.7-14.9,7.9-22.6C262.9,168.9,264.1,163.1,270.4,160.7L270.4,160.7z"/>
<path class="st104" d="M185.3,395.4c-6.9,9.6-15,17.2-27.3,18.6c-0.9,0.1-1.8,0.3-2.7,0.3c-2.5,0-4.6-1.4-5.6-3.3
	c-1.1-2,0.6-3.8,2.1-5.1c7-5.9,15.2-8.8,24.3-8.4C179.4,397.7,182,395.4,185.3,395.4L185.3,395.4z"/>
<path class="st105" d="M228.2,175.4c-1.5,3.1-3,6.1-4.5,9.2c-1.9,2.7-1.4,7.5-6.5,7.3c-4.5,7-4.8,15.2-6.3,23c1.7,0.9,1.7-2.1,3-1.1
	c0.9,0.7,0.5,2,0.4,3c-0.3,2.6-1,5.1-1.3,7.6c-0.2,1.6,0.8,0.5,1.4,0.5c0,1.6-0.6,2.9-2.6,4.8c0.8-9.8-4.8-18.2-1.8-27.5
	c1-3.2,2.1-6.4,4.1-9c3.5-4.6,6.7-9.4,9.8-14.3C224.8,177.2,225.9,175.6,228.2,175.4L228.2,175.4z"/>
<path class="st106" d="M190.5,251.6c11.7,0.5,23.4,1.5,33.2,9.1c-0.1,0.2-0.3,0.3-0.4,0.5c-6-0.2-11.2-3.3-16.9-4.5
	c-4.2-0.9-8.1-2.9-12.6-1.9c-2.2-0.1-3.9-0.7-4.1-3.2C189.9,251.7,190.2,251.6,190.5,251.6L190.5,251.6z"/>
<path class="st107" d="M217.2,191.9c4-0.8,4.1-5,6.5-7.3c-0.1,2.6-1.4,4.9-2.3,7.3C219.8,195.6,218.5,194.2,217.2,191.9z"/>
<path class="st108" d="M103.3,414.1c-7,6.6-15.6,6.9-19.9,3.6c-0.9-0.7-2.3-1.4-1.8-2.8c0.4-1.4,1.8-1.4,3-1.5
	C90.6,412.9,96.4,415,103.3,414.1L103.3,414.1z"/>
<path class="st106" d="M223.7,260.8c2.4,0.9,4.8,1.9,7.3,2.8c-1.5,1.7-3.1,0.4-4.6,0.2c-1.6-0.2-3.7-0.9-4.8,0.4
	c-1.6,1.8,1.2,2.7,1.5,4.9c-7.5-0.2-15.1,1.5-21.3-4.6c2.8-1.3,5.2,0.5,7.9,0.8c2.5,0.3,5,1.2,7.5,1.5c-5.2-0.5-10-3.1-15.4-2.3
	c-0.4-0.1-0.8-0.2-1.3-0.3c2.4-6.3-3.5-6.7-6.5-9.2c1.8-2,3.8-0.6,5.5-0.1c6.5,1.6,12.8,3.7,19.3,5.6c1.6,0.5,3.1,1.3,4.8,0.6
	L223.7,260.8L223.7,260.8z"/>
<path class="st109" d="M223.4,261c-3.2,2-6.2,0-9.1-0.7c-6-1.5-11.9-3.5-17.9-5.3c-0.9-0.3-1.7-0.6-2.6,0c0,0,0,0,0-0.1
	c-0.5-0.6-0.9-1.2-1.7-2.1C203.2,253.8,213.2,257.6,223.4,261L223.4,261z"/>
<path class="st110" d="M220.9,371.1c1-0.3,1.9-0.6,2.9-0.9c5.5-2.1,10.7-4.5,14.6-9.2c0.8-1.1,2.1-1.3,2.5,0
	c1.1,4.7,3.7,2.5,5.7,1.2c7.1-4.6,14-9.5,21-14.3c0.6-0.4,1.4-0.5,2.1-0.8c0.5,1-0.1,1.7-0.6,2.5c-14.6,12.3-30.6,22.6-46.8,32.5
	c-1.1,0.5-2.2,0.9-3.3,0.1c0.8-4.7,5-6.6,7.3-9.5c-1.8-0.2-4.4,3.1-6.3-0.7C220.2,371.7,220.5,371.4,220.9,371.1L220.9,371.1z"/>
<path class="st111" d="M267.7,306.8c-0.6-1.2-1.2-2.5-1.8-3.7c0-0.3,0-0.6,0-0.9c1.6-0.9,4.7,1.1,5-2.5c0.3-0.4,0.7-0.5,1.2-0.5
	c1.3,0.8,1.6,2.2,2.3,3.4c1.8,7,4.1,14,1.6,21.3c-0.2,0.5-0.5,0.9-0.9,1.2c-1.9-3.1-1.3-7.6-5.5-9.3
	C270,312.7,269.8,309.5,267.7,306.8L267.7,306.8z"/>
<path class="st111" d="M268.7,279.2c0.4-0.7,1.1-0.9,1.8-0.9c0.6,1.2,1.5,2.1,2.8,2.7c0.5,1.3,2,2,1.9,3.6c2.1,3.6,4.9,6.8,5.7,11.1
	c0,2.2,0.6,4.2,0.8,6.3c0.1,1.3,0.3,2.9-1.2,3.6c-1.3,0.6-2.2-0.5-3.2-1.3c-0.8-0.7-1.6-1.4-2.4-2.1c-0.6-0.5-1-1-1.4-1.6
	c-0.3-1.1-1.1-2.1-0.6-3.3c2.2-2.6,2.4-5.4,1.1-8.4c-0.9-2.1-1.4-4.3-2.5-6.2C270.6,281.6,270.3,279.9,268.7,279.2L268.7,279.2z"/>
<path class="st39" d="M219.9,372c2,2.4,4.3-0.8,6.6,0.3c-1,4.4-5.6,6.2-7.5,9.9c-0.1,3.4-3.6,2.8-5.2,4.4c-1,0.2-2,1.2-3.1,0.1
	c2.2-2.9,3.8-6.6,6.6-8.6C220.1,376.3,217.1,373.1,219.9,372L219.9,372z"/>
<path class="st38" d="M271.4,282.9c3.1,2.7,4.2,6.4,4.5,10.3c0.1,2-0.3,4-2.8,4.4c-0.7,0.2-1.2-0.2-1.6-0.6
	c-0.9-0.9-1.1-2.2-1.9-3.1C272.3,290.6,271.2,286.6,271.4,282.9L271.4,282.9z"/>
<path class="st38" d="M271.4,299.5c0.2,1.7-0.6,3.2-1.2,4.8c-1.8-0.1-2.4-2.3-4.3-2c1.6-1.9,3.9-3.5,3.7-6.5
	C272,296.1,271.3,298,271.4,299.5L271.4,299.5z"/>
<path class="st112" d="M210.8,386.8c1-0.3,1.9-0.6,2.9-0.9c0.5,0.5,1.4,0.2,1.7,0.9c-0.9,0.6-1.8,1.2-2.8,1.8c-1,0-2.1,0.2-2.7-0.9
	C210.2,387.4,210.5,387.1,210.8,386.8L210.8,386.8z"/>
<path class="st111" d="M271.4,299.5c-1.4-0.8-0.3-2.9-1.8-3.7c0-0.6,0-1.2,0-1.8c1.2,0.6,2.2,1.5,2.7,2.9c-0.5,0.8,0.2,1.9-0.8,2.6
	L271.4,299.5L271.4,299.5z"/>
<path class="st109" d="M279.6,295.8c-0.6-4.1-3.8-7.1-4.6-11.1c6.6,5.2,8.2,13,9.9,20.5c2.1,9.3,1.1,18.4-2.7,27.2
	c-1.1,0.3-1.2-0.5-1.2-1.2c0.2-2.5,0.4-4.9,0.6-7.4C282.6,314.4,282.2,305,279.6,295.8L279.6,295.8z"/>
<path class="st113" d="M282.5,324.3c0.3,2.5-0.8,4.8-1.1,7.1c-0.2,0.6-0.5,0.7-0.8,0.1c0-4.2-1.8-6.3-5.5-6.3c0-0.3,0-0.7,0.1-1.1
	c1.1-1.1,1.5-2.6,2.6-3.7c1.2-1.2,2.2-3.7,4.1-2.3C283.8,319.6,283,322.2,282.5,324.3L282.5,324.3z"/>
<path class="st114" d="M267.7,306.8c3.4,2.3,4.1,5.6,1.9,9.1v0c-1.1-1.4,0.2-3.2-0.9-4.6C267.7,310,267.6,308.4,267.7,306.8
	L267.7,306.8z"/>
<path class="st115" d="M280.5,331.5c0.3,0,0.5,0,0.8-0.1c0.3,0.3,0.7,0.6,1,0.9c-0.6,1.7-1.2,3.4-3.4,4.3
	C279.5,334.8,280,333.2,280.5,331.5L280.5,331.5z"/>
<path class="st111" d="M268.7,311.3c1.4,1.3,0.7,3.1,0.9,4.6C268,314.7,268.8,312.9,268.7,311.3L268.7,311.3z"/>
<path class="st112" d="M270.5,349c-1.3,3.5-3.5,6.5-6.4,8.6c-11.9,8.6-23.2,18.3-36.5,24.8c-3.3,1.6-6.7,2.9-10.4,3.3
	c0.8-2.7,3.7-2.7,5.4-4.1c16.5-9.5,32.4-20.1,46.7-32.7C269.7,348.7,270.1,348.7,270.5,349L270.5,349z"/>
<path class="st116" d="M238.3,361.1c0.5,0.1,1.6,0.4,1,0.8c-4.7,3.7-9.2,7.9-15.6,8.3C228.6,367.2,233.5,364.1,238.3,361.1
	L238.3,361.1z"/>
<path class="st117" d="M222.8,382.3c-1.9,1.2-3.8,2.3-5.7,3.5c-0.6,0.3-1.2,0.6-1.8,0.9c-0.7-0.1-1.4-0.1-1.7-0.9
	c1.8-1.2,4.1-1.7,5.4-3.6c0.9-0.3,1.8-0.7,2.7-1C222.2,381.5,222.8,381.7,222.8,382.3L222.8,382.3z"/>
<path class="st117" d="M270.5,349c-0.3,0-0.6,0-0.9,0c-0.4,0.5-0.7,0.4-1.1-0.1c0.3-0.6,0.7-1.2,1-1.8c0.5-0.1,1.2-0.9,1.5-0.2
	C271.2,347.5,270.7,348.4,270.5,349z"/>
<path class="st118" d="M258.5,215.8c0-2.8-4.4-3.8-2.7-7.2c0.3-0.6,0.6-1.3,0.9-2c0.8,0.9,0.9,1.7,0.6,2.1c0.4-2.1,1.1-4.8,1.2-7.7
	c4.5-3.1,5.3-8.1,6.5-12.9c1.5-6,2.8-12,5.4-17.6c0.7-1.5,1.5-2.6,2.8-3.4c1.4,2-0.1,3.8-0.5,5.6c-3.7,14.5-8.6,28.6-12.9,42.9
	C259.4,216.1,259,216.2,258.5,215.8z"/>
<path class="st119" d="M259.4,215.8c0.5-7.4,3.9-14.1,5.7-21.1c2.5-9.3,5.3-18.4,8-27.6c0.4-0.4,1-1.2,1.3-1.1
	c1.2,0.4,0.7,1.6,0.5,2.3c-1.5,5.9-2.8,11.9-4.6,17.7c-3.2,10-6.7,19.9-10,29.9C260.1,216.1,259.7,216.1,259.4,215.8L259.4,215.8z"
	/>
<path class="st120" d="M258.5,201c2.4,3.3-0.3,5.7-1,8.7c-1.1-1.1-0.6-2.2-0.8-3.1C256.5,204.5,256.9,202.5,258.5,201L258.5,201z"/>
<path class="st118" d="M257.6,227.8c-1.8-3.9,0.1-7.4,0.9-11.1c1.4,0.9-0.1,2.6,0.9,3.6C258.8,222.8,258.2,225.3,257.6,227.8
	L257.6,227.8L257.6,227.8z"/>
<path class="st121" d="M259.4,220.3c-1.3-0.9-0.7-2.4-0.9-3.6c0-0.3,0.1-0.6,0.1-0.9c0.3,0,0.6,0,0.9,0c0.3,0,0.6,0,1,0
	C260,217.3,259.7,218.8,259.4,220.3L259.4,220.3z"/>
<path class="st122" d="M196,423.5c1.6-3,1.8-6.7,4.7-10.2c-0.6,9.6-3.5,17.7-6.6,25.7c-2.6-0.9-2-3.2-1.7-4.8
	C193.1,430.5,193.7,426.7,196,423.5L196,423.5z"/>
<path class="st123" d="M196,423.5c-0.8,3.5-1.6,7-2.4,10.5c-0.4,1.7-1,3.5,0.5,5.1c-0.1,1.9-1,3.4-2.2,4.8c-1.9-2,2.8-5.4-1.6-6.7
	c-0.8-4.6,1.1-8.6,2.8-12.7C194.1,424.2,195.1,423.8,196,423.5L196,423.5z"/>
<path class="st124" d="M193.2,424.5c0.2,4.5-2.4,8.3-2.8,12.7c-0.3,0.6-0.6,1.2-0.9,1.9c-0.8,0.3-1.2,0.1-0.9-0.9
	c-0.1-4,1.3-7.7,2.2-11.5C191.2,425.7,191.5,424.2,193.2,424.5L193.2,424.5z"/>
<path class="st123" d="M188.6,438.2c0.3,0.3,0.6,0.6,0.9,0.9c0.1,1.1-0.3,2.1-1.5,3.2C187.8,440.6,187.4,439.4,188.6,438.2
	L188.6,438.2z"/>
<path class="st24" d="M300.2,81.9c2.2,4.8,0.4,11.4-4.6,16C296.2,92,296.4,86.6,300.2,81.9z"/>
<path class="st125" d="M1356.8,105.8c-0.3-0.9-1.5-1.7-0.4-2.7c0.2-0.2,0.9-0.3,1.2-0.1c1.2,0.9,0.1,1.8-0.2,2.7l-0.3,0.2
	L1356.8,105.8L1356.8,105.8z"/>
<path class="st51" d="M1294.9,117.6c1.3,0.7,1,1.9,1.1,3c-0.7,0.9-1.8,0.6-2.8,0.8c0-0.3-0.1-0.7-0.1-1
	C1293.5,119.3,1294.2,118.4,1294.9,117.6z"/>
<path class="st126" d="M1367.6,91.8c1.1,0.2,2.5-0.5,3.1,0.7c0.5,0.9-0.6,1-1.2,1.2c-6.8,0.8-13.7,1.7-20.5,2.5
	c4.2-2.5,8.8-2.9,13.4-3.5C1364.2,92.5,1366.1,93.4,1367.6,91.8L1367.6,91.8z"/>
<path class="st127" d="M1342.2,91.2c-5.9,1.5-11.7,3-17.6,4.5c5.5-3,11.4-4.7,17.4-5.9C1342,90.3,1342.1,90.7,1342.2,91.2
	L1342.2,91.2z"/>
<path class="st128" d="M1306.1,56.8c0.3,0,0.6,0,0.9-0.1c6.5,5.4,4.2,12.8,4.4,19.6c0,0.9-0.6,1.3-1.4,1.5c-0.2-0.5-0.3-1.1-0.5-1.6
	c0.3-2.6-0.3-5.2-0.1-7.7c0-1.5,0.2-3.1-0.5-4.5c-0.7-2-2.5-3.4-3.3-5.4C1305.6,57.9,1305.6,57.3,1306.1,56.8L1306.1,56.8z"/>
<path class="st129" d="M1334.2,69.4c0.4,1,0.9,1.9,1.3,2.9c-1.2,1.4-2.1,3-3.7,3.8c-5.3-1.3-6.3-3.1-4.4-8.1h0
	c0.2-0.5,0.6-0.5,1-0.3c0.3,0.3,0.4,0.7,0.6,1.1c0.3,1.8-0.2,4.2,2.9,3.7c1-0.7,0.9-1.9,1.4-2.8
	C1333.5,69.5,1333.8,69.4,1334.2,69.4L1334.2,69.4z"/>
<path class="st130" d="M1353.1,75.2c-0.4-0.6-0.7-1.2-1.1-1.7c1.5-1.1,3.2-0.5,4.8-0.6c0.4,0.1,0.7,0.4,1,0.7
	c-0.8,1.5-2.4,1.6-3.9,1.9C1353.6,75.3,1353.4,75.2,1353.1,75.2L1353.1,75.2z"/>
<path class="st131" d="M1327.6,109.9c-0.2,0.6-0.6,1-1.3,1c-0.8,0-0.9-0.6-0.9-1.2c0-0.7,0.5-1,1.2-0.9
	C1327.3,108.8,1327.6,109.3,1327.6,109.9L1327.6,109.9z"/>
<path class="st132" d="M1376.8,98.3c-0.3,0.3-0.6,0.6-0.9,0.9c-1.6-0.2-3.2,0.5-4.8-0.5C1373,97.7,1374.9,98.3,1376.8,98.3z"/>
<path class="st126" d="M1360.9,95.9c1.8-0.6,3.4-0.7,5.2,0.1C1364.3,96.5,1362.7,96.7,1360.9,95.9z"/>
<path class="st133" d="M1341.7,105.4c1.1,0.2,1.8,0.3,1.6,1.1c-0.1,0.3-0.6,0.7-0.9,0.8c-0.6,0-1.2-0.2-1.1-1
	C1341.3,105.9,1341.6,105.6,1341.7,105.4L1341.7,105.4z"/>
<path class="st24" d="M1320.2,112.2c-0.7,0.3-1.1,0.6-1.5,0.6c-0.4,0-1-0.2-1.1-0.5c-0.3-0.7,0.2-1.1,0.9-1.2
	C1318.8,111.1,1319.2,111.5,1320.2,112.2L1320.2,112.2z"/>
<path class="st134" d="M1355.7,101c1.4-1.4,2.9-1.2,4.6-0.1L1355.7,101L1355.7,101L1355.7,101z"/>
<path class="st135" d="M1367.4,99.4c-1.9,0.7-3.2,0.9-4.6,0.2C1364.1,98.7,1365.3,99.1,1367.4,99.4z"/>
<path class="st136" d="M1302.4,117.5c0-0.8-0.4-1.9,0.8-2.2c0.2-0.1,0.8,0.4,0.9,0.7C1304.3,117.2,1303.4,117.4,1302.4,117.5
	L1302.4,117.5z"/>
<path class="st137" d="M1375.9,100c0.7,0.4,1.1,1,0.7,1.8c-0.1,0.2-0.6,0.3-0.7,0.2c-0.8-0.4-0.8-1.2-0.7-2
	C1375.4,100.1,1375.7,100.1,1375.9,100L1375.9,100z"/>
<path class="st134" d="M1355.7,100.9c-1.2,1.4-2.5,1.3-4,0.4C1353.1,100.5,1354.4,101,1355.7,100.9L1355.7,100.9L1355.7,100.9z"/>
<path class="st138" d="M1346.3,102.3c1-0.6,2-0.7,3.2,0C1348.4,103.1,1347.4,103.1,1346.3,102.3z"/>
<path class="st139" d="M1293.2,80.9c0.9,0.6,1.8,1.2,2.7,1.8c-0.5,6.4-2.6,8-7.4,5.4c0.1-0.7,0.5-1.1,1.1-1.4c2.7-0.5,3.5-2.2,3-4.7
	C1292.7,81.6,1292.9,81.3,1293.2,80.9L1293.2,80.9z"/>
<path class="st140" d="M1266.9,98.3c-3-1.3-2.3-3.6-1.3-5.7c1.4-2.9,4-1.8,6.3-1.4c1.2,1.2,2.4,2.4,1.6,4.3c-1.1,0-1.5-0.9-2.1-1.5
	c-0.4-0.3-0.9-0.6-1.4-0.8C1266.7,93.5,1268.3,96.8,1266.9,98.3L1266.9,98.3z"/>
<path class="st141" d="M1264.7,117.5c5-0.4,9.5-2.9,14.7-3.2c-2.4,1.1-4.9,2.1-7.3,3.2l0,0c-1.6,0.6-3.2,0.9-4.8,1.3
	C1266.3,119.1,1264.7,119.6,1264.7,117.5L1264.7,117.5z"/>
<path class="st67" d="M1264.7,117.5c2.5,2.3,4.9-0.9,7.4,0c-2.2,1.6-4.8,2.1-7.4,2.7C1264.5,119.3,1263.3,118.4,1264.7,117.5
	L1264.7,117.5z"/>
<path class="st142" d="M1267.5,83.4c0-0.3,0-0.6,0-0.9c3.2-0.2,2.8,3.2,4.9,4.5C1268.8,87.8,1269.4,84.1,1267.5,83.4z"/>
<path class="st143" d="M1294.9,117.6c0.4,1.5,0,2.6-1.7,2.8C1291.2,117.9,1292.8,117.6,1294.9,117.6z"/>
<path class="st144" d="M1289.6,87.3c-0.4,0.3-0.7,0.6-1.1,0.9c-0.2-0.1-0.4-0.1-0.7-0.2c-0.8-1.1-1.1-2.3-1.2-3.6
	c0.3-0.4,0.5-0.7,0.8-1.1c0.4,0.1,0.7,0.3,1,0.7C1288.9,85,1289.5,86.1,1289.6,87.3L1289.6,87.3z"/>
<path class="st145" d="M1261.2,135.1c-1-0.3-2.3-0.5-1.8-2c0.1-0.3,0.8-0.6,1.1-0.5C1262.2,133,1261.4,134.1,1261.2,135.1
	L1261.2,135.1z"/>
<path class="st146" d="M1271.2,99.3c-1.5-0.2-3.2,0.4-4.3-1.1c1.3-1.4,3-1.4,4.7-1.4c0.6,0.1,0.8,0.5,0.7,1
	C1271.9,98.4,1271.5,98.8,1271.2,99.3z"/>
<path class="st147" d="M1272.2,97.9c-0.1-0.3-0.1-0.7-0.2-1c-0.3-0.3-0.5-0.7-0.6-1.1c-0.1-0.9,0-1.7,0.9-2.2
	c0.4,0.6,0.9,1.3,1.3,1.9C1273.6,96.5,1273.1,97.3,1272.2,97.9L1272.2,97.9z"/>
<path class="st148" d="M1268.4,131.3c-0.9-0.1-1.9-0.1-2.2-1.2c-0.1-0.6,0.4-1.2,1.1-1C1268.4,129.3,1268.3,130.4,1268.4,131.3
	L1268.4,131.3z"/>
<path class="st67" d="M1259.2,106.6c1.8-0.1,2.6,1,2.9,2.6C1260.7,108.7,1259.9,107.7,1259.2,106.6z"/>
<path class="st149" d="M1276.6,126.8c-0.5-0.3-1.1-0.4-1.1-0.7c-0.1-0.6,0.4-1.1,1-1.1c0.3,0,0.7,0.5,0.8,0.8
	C1277.3,126.1,1276.8,126.5,1276.6,126.8z"/>
<path class="st150" d="M1308,72.4c-1.4-1.1-2.4-2.5-2.9-4.3c-0.5-0.9-0.5-1.8-0.3-2.7c1.6-1.4,2.5,0.2,3.6,0.8
	c0.8,0.6,1.4,1.3,1.7,2.2c0.1,1.4,0.3,2.8-0.1,4.1C1309.5,74.2,1308.7,73.5,1308,72.4L1308,72.4z"/>
<path class="st151" d="M1308,72.4c3.4-0.3,1-3,1.8-4.4c0.1-0.1,0.2-0.3,0.4-0.4c0.1,0.1,0.3,0.2,0.4,0.3c-0.4,2.8,1.1,5.8-1.1,8.3
	C1308.7,75.1,1307.8,74,1308,72.4L1308,72.4z"/>
<path class="st152" d="M1306.1,56.8c0,0.7,0.1,1.4,0.1,2.1c0.3,0.6,0.4,1.1,0.3,1.7c-0.4,1.1-0.6,2.4-2,2.9
	c-0.2-0.1-0.3-0.2-0.5-0.3C1304,60.8,1304.1,58.5,1306.1,56.8L1306.1,56.8z"/>
<path class="st3" d="M1305,65.2c0,1,0.1,2,0.1,2.9c-1.1-1.5-2.9-2.9-1-5l0.1,0.1C1304.9,63.8,1305.2,64.4,1305,65.2z"/>
<path class="st153" d="M1281.6,91.1c-1.4-1.8-4.3-2.9-3.2-5.7c0.3-0.7,2.3-1.6,2.6-1.4C1283.1,86.1,1281.7,88.7,1281.6,91.1
	L1281.6,91.1z"/>
<path class="st154" d="M1293.2,80.9c0,0.3,0.1,0.7,0.1,1c-1.7,1-3.4,1.7-5.4,1.6c-0.2-0.1-0.3-0.2-0.5-0.3
	C1288.3,80,1290.4,79.7,1293.2,80.9z"/>
<path class="st155" d="M1271.9,96.2c0,0.2,0.1,0.5,0.1,0.7c-1.4,1.8-3.4,1.1-5.2,1.3c0,0,0,0,0,0c-0.7-6.2-0.1-6.9,4.4-5.7
	C1271.1,93.9,1271.2,95.1,1271.9,96.2z"/>
<path class="st119" d="M132.5,457.4c-0.3,0.6-0.6,1.1-0.9,1.7c-1.4-1.1-0.7-2.4-0.3-3.7c1.7-5.8,3.3-11.5,5-17.3
	c3.7,1.5,4.3-1.5,5.5-3.7c2.2,2.3,0.4,4.6-0.2,6.8c-1.4,5.6-3.6,11-6.3,16.1C134.4,457.7,133.4,455.2,132.5,457.4L132.5,457.4z"/>
<path class="st75" d="M132.5,457.4c0.4-1.4,0.9-2.8,2.1-3.9c1.8,1-1,2.8,0.7,3.7c0,0.7,0,1.3,0.1,2
	C133.9,459.5,133.5,457.9,132.5,457.4L132.5,457.4z"/>
<path class="st156" d="M1352.2,66.9c-1.9-0.1-2-1.5-2-2.9c-0.1-5.5,0.7-10.9,1.5-16.3c2,4,4.7,7.7,5.9,12.1
	c-2.1-1.3-2.5-4.3-5.2-5.1c0.2,3.7,1.4,6.8,4.1,9.4c1.1,1.1,2,2.3,2,4c-0.4,0.2-0.8,0.3-1.2,0.2
	C1355.8,67.2,1353.9,67.5,1352.2,66.9L1352.2,66.9z"/>
<path class="st157" d="M1378.4,81.4c1,4.4,2.7,8.8,0.7,13.4C1377.7,90.4,1376.1,86,1378.4,81.4z"/>
<path class="st130" d="M1357.1,67.2c0.5,0.3,0.9,0.6,1.4,0.8c0.2,0.3,0.3,0.5,0.5,0.8c0.7,1.9,0.4,3.5-1.3,4.7
	c-0.1-0.1-0.3-0.3-0.4-0.4c-0.5-0.5-0.7-1.2-0.8-1.9c-0.1-0.9-0.1-1.9,0-2.8C1356.6,68,1356.8,67.6,1357.1,67.2L1357.1,67.2z"/>
<path class="st158" d="M1381.4,100.7c-0.2,0.2-0.5,0.5-0.7,0.7c-0.3-0.3-0.8-0.5-0.7-0.8c0-0.3,0.4-0.8,0.7-0.9
	C1381.2,99.7,1381.4,100.1,1381.4,100.7z"/>
<path class="st91" d="M300.9,124.1c6.1-7.1,18.4-6.3,23.3,1.3c0.8,1.2,2.2,2,3.3,3.1l-0.2,0.1c-2.3,0.9-4.6,0.1-6.9-0.3
	c-1.4-0.7-1.6-1.9-1.5-3.3c-3.4-3.1-7.3-1.5-11.1-1.1C305.6,124.1,303.3,125.7,300.9,124.1L300.9,124.1z"/>
<path class="st159" d="M300.9,124.1c6.4-1.3,12.6-3.4,19.2-1.1c2.1,0.7,1.9,1.2,0,1.9c-3.8,2.2-7.8,1.5-11.8,0.9
	c-1.3-0.2-2.6-0.9-3.9-0.1c-1.2,0-2.4,0-3.6,0c-0.2-0.2-0.3-0.4-0.3-0.6c0.1-0.2,0.1-0.3,0.2-0.3
	C300.8,124.6,300.9,124.4,300.9,124.1L300.9,124.1z"/>
<path class="st160" d="M300.7,124.8c0,0.3,0.1,0.6,0.1,0.9c-0.9,1.2-1.9,1.2-2.8,0C298.9,125.4,299.8,125.1,300.7,124.8L300.7,124.8
	z"/>
<path class="st160" d="M304.4,125.7c5.2-1.8,10.5-0.5,15.7-0.9c-0.6,0.9-0.6,1.8,0,2.7c-4.3,0.8-8.4,3.1-12.9,0.9
	C308.5,125.3,305.9,126.1,304.4,125.7L304.4,125.7z"/>
<path class="st161" d="M307.2,128.5c4.3-0.3,8.6-0.6,12.9-0.9c2.4,0.3,4.8,0.7,7.2,1c-7.5,1.5-15,1.3-24,2.1
	C305.4,129.5,306.3,129,307.2,128.5L307.2,128.5z"/>
<path class="st162" d="M1357.6,71.5c-0.1,0.6-0.2,1.1-0.3,1.7c-1.7,1.2-3.5,0.6-5.3,0.3l0,0c-1.9-2-1.2-4,0-6
	c0.1-0.1,0.2-0.3,0.1-0.5c1.7-0.7,3.4-1.4,5,0.3c0.1,0.6,0.1,1.1,0.2,1.7C1356.6,69.9,1356.4,70.8,1357.6,71.5L1357.6,71.5z"/>
<path class="st163" d="M1352.1,67.4c-0.5,2-0.8,4,0,6C1349,71.4,1349.7,69.4,1352.1,67.4z"/>
<path class="st56" d="M1328.2,68.1c-0.3,0-0.6,0-0.8-0.1c0.7-2.4,2.6-2,4.4-1.9c0.1,0.2,0.2,0.5,0.3,0.8c-0.1,0.2-0.3,0.3-0.4,0.5
	C1330.6,68,1329.5,68.5,1328.2,68.1L1328.2,68.1z"/>
<path class="st164" d="M1334.2,69.4c-0.2,0.2-0.4,0.3-0.7,0.3c-1,1.1-0.7,2.4-0.7,3.7c-4.1,1.5-5.2,0.6-4.6-4.3
	c0.9-1.3,2.3-1.5,3.6-1.8l0.2-0.3C1333,67.5,1333.9,68.2,1334.2,69.4L1334.2,69.4z"/>
<path class="st124" d="M174.8,402.3c-7.5,3.6-15.1,6.7-23.4,8c6.8-3.9,14.4-6.1,21.6-8.9C174.1,400.8,174.9,400.7,174.8,402.3
	L174.8,402.3z"/>
<path class="st165" d="M174.8,402.3c-0.3-0.8-1.1-0.8-1.7-0.9c2.4-1.2,4.8-2.4,7.3-3.6C179.4,400.7,177,401.3,174.8,402.3z"/>
<path class="st166" d="M97.5,416.4c-4.7,2.1-9.2,1.6-14.6-0.8C88.5,414.5,93,416.9,97.5,416.4z"/>
<path class="st167" d="M201.6,264.5c0-1.1,0.5-1.8,1.7-1.6c5.7,1,11.4,1.8,16.6,4.8C213.6,267.7,207.6,265.8,201.6,264.5
	L201.6,264.5L201.6,264.5z"/>
<path class="st122" d="M268.5,349c0.3,0,0.7,0.1,1.1,0.1c-5.3,6.7-12.4,11.2-19.3,16c-8.9,6.2-17.5,12.8-27.5,17.2
	c-0.3-0.3-0.7-0.7-1-1.1C237.9,371.2,253.7,360.7,268.5,349z"/>
<path class="st24" d="M277.8,321.5c-0.8,1-0.8,2.8-2.7,2.6c1.7-7.5-0.3-14.7-2-21.9c-0.4-1-0.8-2,1-1.8c0.3,0.3,0.6,0.6,0.8,0.9
	C279.8,307.5,281.7,314.1,277.8,321.5L277.8,321.5z"/>
<path class="st115" d="M274.1,300.4c-0.8,0.4-0.8,1.1-1,1.8c-0.6-1-1.1-1.9-1.7-2.9c0-0.9-0.3-2,0.8-2.6c0.3,0.3,0.6,0.6,0.8,0.9
	C273.4,298.6,273.8,299.5,274.1,300.4L274.1,300.4z"/>
<path class="st168" d="M277.8,321.5c1.9-7.1,0.1-13.7-2.9-20.2c1.6,1.3,3.2,2.6,5.1,4c1.5-3.4-1.1-6.4-0.4-9.6
	c3.9,9.2,4.9,18.7,2.8,28.5c0-0.1,0-0.3,0-0.5c-0.3-1.8,1-4.4-1.2-5.3C279.6,317.9,279.6,321.2,277.8,321.5L277.8,321.5z"/>
<path class="st169" d="M1305.9,60.5c0.1-0.5,0.3-1.1,0.4-1.6c1.9,0.8,2.6,2.6,3.5,4.3c0.6,1.6,0.7,3.1,0,4.7c0,0,0.1,0.1,0.1,0.1
	c-0.8-0.1-1.5-0.2-2-1C1307.2,64.8,1306.6,62.6,1305.9,60.5L1305.9,60.5z"/>
<path class="st170" d="M1309.8,67.9c0-1.6,0-3.1,0-4.7c1.4,1.4,0.7,3.1,0.8,4.7C1310.3,67.9,1310,67.9,1309.8,67.9z"/>
<path class="st171" d="M1332.8,73.4c-1.4-1.5-1.8-2.9,0.7-3.7C1333.9,71,1334,72.3,1332.8,73.4z"/>
<path class="st172" d="M1331.8,67.2c-0.8,1.3-2.4,1.3-3.6,1.8c0-0.3,0-0.6,0-0.9C1329.2,67.2,1330.4,66.6,1331.8,67.2L1331.8,67.2z"
	/>
<path class="st173" d="M1287.9,83.6c1.6-1.3,3.1-2.6,5.4-1.7c1.5,4.5,1,5.3-3.7,5.3C1288.2,86.4,1287.8,85.1,1287.9,83.6z"/>
<path class="st174" d="M1271.9,96.2c-1.5-1-3-1.9-0.6-3.6c0.3,0.3,0.7,0.7,1,1C1272.2,94.5,1272,95.3,1271.9,96.2L1271.9,96.2z"/>
<path class="st170" d="M1305.9,60.5c2.3,1.7,3.3,3.7,2,6.5c-1-0.6-1.9-1.2-2.9-1.8c-0.2-0.6-0.5-1.3-0.8-1.9
	C1305.7,62.9,1304.9,61.2,1305.9,60.5L1305.9,60.5z"/>
<path class="st175" d="M1357.6,71.5c-0.6,0.1-1.5,1.1-1.8-0.1c-0.3-1.2-0.3-2.5,1.5-2.5C1357.4,69.8,1357.5,70.7,1357.6,71.5
	L1357.6,71.5z"/>
</svg>
