<svg width="24" height="27" viewBox="0 0 24 27" fill="none" xmlns="http://www.w3.org/2000/svg">
<path d="M19.8606 19.112C18.8546 19.112 17.9544 19.5093 17.2661 20.1317L7.82799 14.6359C7.89418 14.3314 7.94713 14.0268 7.94713 13.7089C7.94713 13.3911 7.89418 13.0865 7.82799 12.7819L17.1602 7.33912C17.875 8.00126 18.8149 8.41179 19.8606 8.41179C22.058 8.41179 23.8317 6.63724 23.8317 4.43893C23.8317 2.24061 22.058 0.466064 19.8606 0.466064C17.6632 0.466064 15.8894 2.24061 15.8894 4.43893C15.8894 4.75676 15.9424 5.06134 16.0086 5.36593L6.67636 10.8088C5.96155 10.1466 5.02171 9.73608 3.97598 9.73608C1.7786 9.73608 0.00482178 11.5106 0.00482178 13.7089C0.00482178 15.9073 1.7786 17.6818 3.97598 17.6818C5.02171 17.6818 5.96155 17.2713 6.67636 16.6091L16.1012 22.1182C16.035 22.3963 15.9953 22.6876 15.9953 22.979C15.9953 25.1111 17.7294 26.8459 19.8606 26.8459C21.9918 26.8459 23.7258 25.1111 23.7258 22.979C23.7258 20.8468 21.9918 19.112 19.8606 19.112Z" fill="white"/>
</svg>
